<?xml version="1.0" encoding="UTF-8"?>
<!DOCTYPE svg PUBLIC "-//W3C//DTD SVG 1.1//EN" "http://www.w3.org/Graphics/SVG/1.1/DTD/svg11.dtd">
<!-- Creator: CorelDRAW 2019 (64-Bit) -->
<svg xmlns="http://www.w3.org/2000/svg" xml:space="preserve" width="84.6666mm" height="76.1998mm" version="1.1" style="shape-rendering:geometricPrecision; text-rendering:geometricPrecision; image-rendering:optimizeQuality; fill-rule:evenodd; clip-rule:evenodd"
viewBox="0 0 8466.66 7619.98"
 xmlns:xlink="http://www.w3.org/1999/xlink">
 <defs>
  <style type="text/css">
   <![CDATA[
    .str0 {stroke:black;stroke-width:15.41;stroke-miterlimit:22.9256;stroke-opacity:0.200000}
    .str1 {stroke:#3F3D56;stroke-width:15.41;stroke-miterlimit:22.9256}
    .fil9 {fill:none}
    .fil8 {fill:none}
    .fil2 {fill:#2F2E41}
    .fil10 {fill:#3F3D56}
    .fil5 {fill:#575A89}
    .fil14 {fill:#9F616A}
    .fil7 {fill:#A064FF}
    .fil18 {fill:#C2A6F0}
    .fil1 {fill:#DFCBFF}
    .fil12 {fill:#EEE8F8}
    .fil13 {fill:#F05831}
    .fil15 {fill:#F05831}
    .fil11 {fill:#FFA7A6}
    .fil3 {fill:#FFB9B9}
    .fil17 {fill:#C2A6F0;fill-rule:nonzero}
    .fil16 {fill:#F59BB9;fill-rule:nonzero}
    .fil4 {fill:black;fill-opacity:0.101961}
    .fil6 {fill:black;fill-opacity:0.200000}
    .fil0 {fill:#EEE8F8;fill-rule:nonzero}
   ]]>
  </style>
 </defs>
 <g id="Layer_x0020_1">
  <metadata id="CorelCorpID_0Corel-Layer"/>
  <path class="fil0" d="M478.9 4885.45c0,0 -1052.02,-1319.61 86.07,-2158.08 1138.11,-838.46 1662.01,113.25 2256.87,-1215.52 594.87,-1328.75 2522.19,-535.72 2934.67,132.41 412.48,668.14 187.66,1123.91 1491.57,1567.61 1303.91,443.7 928.85,1819.26 297.69,2307.54 -895.49,692.81 -1736.59,3199.15 -3443.34,1152.06 -774.41,-928.85 -1702.93,559.22 -3623.53,-1786.02z"/>
  <ellipse class="fil1" cx="1812.65" cy="7230.7" rx="1156.93" ry="185.11"/>
  <ellipse class="fil1" cx="6639.13" cy="6941.23" rx="1790.13" ry="286.42"/>
  <path class="fil2" d="M6241.39 4188.1c0,0 15.24,50.81 -71.14,96.54 -86.38,45.72 -111.79,218.41 -10.17,269.21 101.63,50.81 132.12,116.87 81.3,162.6 -50.81,45.73 -142.27,167.68 -20.32,198.17 121.94,30.49 137.18,91.46 101.62,116.86 -35.57,25.4 81.3,-45.73 81.3,-45.73 0,0 20.32,121.94 127.03,91.46 106.7,-30.48 406.49,-609.74 253.97,-690.88 -152.51,-81.15 -543.59,-198.23 -543.59,-198.23z"/>
  <path class="fil3" d="M6425.57 4678.7c0,0 52.68,184.41 -39.55,197.62 -57.17,8.91 -111.5,31.54 -158.08,65.87l171.27 223.96 316.22 0.03 197.3 -197.69c0,0 -263.51,-197.62 -211.06,-316.21 52.45,-118.59 -276.1,26.42 -276.1,26.42z"/>
  <path class="fil4" d="M6425.57 4678.7c0,0 52.68,184.41 -39.55,197.62 -57.17,8.91 -111.5,31.54 -158.08,65.87l171.27 223.96 316.22 0.03 197.3 -197.69c0,0 -263.51,-197.62 -211.06,-316.21 52.45,-118.59 -276.1,26.42 -276.1,26.42z"/>
  <polygon class="fil3" points="6504.6,6971.01 6807.59,7076.38 7018.34,7089.59 7005.21,6905.11 6570.42,6776.52 "/>
  <path class="fil5" d="M6893.19 6931.45c0,0 0,184.41 26.34,184.41 26.34,0 382.02,-39.55 487.48,0 105.46,39.56 263.52,-105.37 184.41,-184.41 -79.1,-79.03 -208.01,-197.62 -288.46,-171.27 -80.44,26.36 -409.77,92.25 -409.77,92.25l0 79.02z"/>
  <path class="fil5" d="M5924.88 6760.18c0,0 -158.06,316.21 -52.68,342.55 105.37,26.35 223.96,-13.21 237.17,-26.34 13.21,-13.13 197.62,-65.89 223.96,-39.55 26.34,26.34 26.34,-105.38 26.34,-105.38l-434.79 -171.28z"/>
  <path class="fil2" d="M6056.68 6325.47c0,0 -250.16,342.55 -65.9,434.71 184.26,92.17 1067.13,92.25 1133.02,0 65.89,-92.24 92.25,-382.02 0,-408.37 -92.25,-26.35 -1067.12,-26.34 -1067.12,-26.34z"/>
  <path class="fil6" d="M6056.68 6325.47c0,0 -250.16,342.55 -65.9,434.71 184.26,92.17 1067.13,92.25 1133.02,0 65.89,-92.24 92.25,-382.02 0,-408.37 -92.25,-26.35 -1067.12,-26.34 -1067.12,-26.34z"/>
  <circle class="fil3" cx="6530.95" cy="4467.88" r="302.99"/>
  <path class="fil7" d="M6056.68 4942.15l263.51 -52.69c0,0 65.9,211.07 276.65,171.27 210.75,-39.79 263.52,-171.27 263.52,-171.27 0,0 158.05,65.9 171.27,65.9 13.21,0 184.41,65.89 184.41,105.37 0,39.49 -197.7,434.56 -197.7,434.56l26.34 711.36 -974.87 -26.34 65.89 -698.23 -79.02 -539.93z"/>
  <path class="fil3" d="M5911.75 5284.69c0,0 -79.04,698.23 -26.34,750.91 52.69,52.68 263.51,197.62 263.51,197.62l0 -158.06 -105.45 -197.62 105.37 -461.21 -237.09 -131.64z"/>
  <path class="fil3" d="M7275.29 5264.91c0,0 -46.11,718.01 -46.11,744.35 0,26.34 -118.59,118.59 -158.06,118.59 -39.47,0 -65.9,-65.9 -65.9,-65.9l92.24 -105.45 -65.9 -540.17 243.73 -151.42z"/>
  <path class="fil2" d="M7150.14 6272.79c0,0 592.86,-329.34 605.99,0 13.13,329.34 -303,461.2 -303,461.2 0,0 -816.82,244.92 -849.73,155.41 -32.9,-89.52 -98.81,-234.52 -46.11,-247.65 52.69,-13.13 118.58,-39.55 144.93,-13.21 26.34,26.34 355.68,-197.62 355.68,-197.62l92.24 -158.13z"/>
  <path class="fil8 str0" d="M7426.79 6233.22c0,0 -118.59,52.69 -158.06,92.25 -39.47,39.56 -211.07,105.37 -211.07,105.37"/>
  <path class="fil7" d="M6135.71 4968.49l-79.03 -26.34c0,0 -289.86,302.98 -197.62,382.1 92.23,79.12 144.92,105.38 171.28,131.95 26.35,26.58 158.05,39.09 158.05,39.09l-52.68 -526.8z"/>
  <path class="fil7" d="M7097.46 5034.08l118.59 26.34c0,0 92.24,197.62 118.58,223.96 26.34,26.34 -39.55,13.21 -79.03,65.9 -39.48,52.68 -79.12,145.01 -158.14,145.01 -79.03,0 -184.73,-131.57 -184.73,-131.57l184.73 -329.64z"/>
  <path class="fil2" d="M6083.02 6391.37c0,0 -500.3,-355.68 -672.28,-92.24 -171.98,263.43 737.79,619.19 869.5,672.27 131.72,53.08 250.16,105.38 250.16,105.38 0,0 118.58,-289.86 118.58,-342.55 0,-52.69 -92.24,-52.68 -118.58,-52.68 -26.34,0 -144.93,-26.35 -171.27,-65.9 -26.34,-39.55 -276.11,-224.28 -276.11,-224.28z"/>
  <path class="fil8 str0" d="M5806.37 6299.13c0,0 131.72,105.37 250.16,131.71 118.43,26.35 158.05,92.25 158.05,92.25"/>
  <path class="fil5" d="M5992.1 5803.75l10.55 557.84c0.72,38.02 31.76,68.47 69.81,68.47 0.18,0 0.38,0 0.55,0l1038.05 -11.65c36.71,-0.39 66.85,-29.17 68.94,-65.83l31.28 -546.11c0.07,-1.33 0.11,-2.68 0.11,-4.01 0,-36.99 -28.86,-67.56 -65.78,-69.69l-1083.7 0.01c-38.55,-0.02 -69.81,31.24 -69.81,69.79 0,0.37 0,0.77 0,1.18z"/>
  <path class="fil2" d="M6547.13 4087.26c0,0 16.88,56.28 -78.8,106.94 -95.69,50.65 -123.82,242.33 -11.25,298.3 112.57,55.97 146.33,129.45 90.05,179.79 -56.29,50.34 -157.59,185.74 -22.52,219.51 135.08,33.77 151.97,101.62 112.57,129.45 -39.4,27.84 90.06,-50.65 90.06,-50.65 0,0 22.51,135.08 140.71,101.62 118.19,-33.45 236.07,-647.88 104.28,-805.79 -122.5,-146.97 -425.1,-179.17 -425.1,-179.17z"/>
  <path class="fil2" d="M6511.17 4029.33c0,-82.48 246.71,-23.45 352.47,91.93 73.25,79.73 184.48,199.65 91.23,284.24 -93.25,84.58 159.79,195.43 227.64,228.96 67.85,33.54 201.84,136.34 80.83,205.28 -121.01,68.95 -118.97,138.52 -73.48,155.02 45.49,16.5 -100.38,-24.47 -100.38,-24.47 0,0 14.78,136.11 -108.18,135.48 -122.96,-0.63 -475.52,-676.11 -391.33,-863.88 78.4,-174.72 -78.8,-212.56 -78.8,-212.56z"/>
  <path class="fil2" d="M6564.56 4011.28c-329.89,-19.86 -362.95,228.42 -362.95,228.42 2.26,143.68 230.44,73.71 293.84,95.13 76.45,-54.72 223.88,-159.08 329.26,-233.34 -76.53,-53.87 -166.72,-85.21 -260.14,-90.2l-0.01 -0.01z"/>
  <path class="fil9 str1" d="M6393.02 5595.74c0,0 -195.37,-1386.76 -1418.25,-2392.76"/>
  <polygon class="fil10" points="5051.08,3172.72 5054.75,3187.98 4979.86,3206.11 5003.47,3279.51 4988.53,3284.28 4959.85,3194.85 "/>
  <path class="fil7" d="M1190.94 7012.68c0,175.65 -104.44,236.94 -233.18,236.94l-8.91 -0.01c-5.95,0 -11.88,-0.39 -17.75,-0.78 -116.24,-8.21 -206.53,-72.7 -206.53,-236.08 0,-169.09 215.99,-382.34 232.24,-398.12l0.01 0 0.94 -0.94c0,0 233.18,223.34 233.18,398.99z"/>
  <path class="fil10" d="M949.23 7222.88l85.29 -119.21 -85.44 132.18 0 13.68c-5.94,0 -11.88,-0.4 -17.74,-0.78l9.22 -175.74 0 -1.33 0 0 0.86 -16.57 -85.98 -132.89 85.98 120.15 0 3.52 6.96 -132.89 -73.4 -137.04 74.26 113.74 7.27 -275.25 0 0 -1.18 217.09 73.09 -85.99 -73.32 104.75 -1.96 118.9 68.25 -114.05 -68.63 131.49 -1.1 66.06 99.04 -158.77 -99.04 181.83 -2.43 147.12z"/>
  <path class="fil2" d="M2303.33 6967.18l49.87 -37.06c0,0 32.99,184.49 -3.82,212.09 -36.81,27.6 -175.02,73.71 -175.02,128.98 0,55.27 -313.24,128.99 -322.46,46.05 -9.23,-82.94 27.67,-128.99 27.67,-128.99 0,0 147.43,-147.43 165.8,-175.02 18.36,-27.59 64.33,-82.87 64.33,-82.87l193.63 36.82z"/>
  <path class="fil2" d="M1566.4 4673.31c0,0 1.41,7.82 3.76,22.91 2.19,13.21 5.23,31.82 8.9,54.72 38.7,236.08 151.58,931.18 143.92,954.08 -9.22,27.68 -73.72,128.99 0,156.35 7.11,2.66 14.77,11.33 22.9,24.94 15.82,29.27 29.02,60.19 39.09,91.89 43.93,127.5 90.91,331.53 118.12,472.86 11.88,62.07 20.01,112.02 22.35,138.21 0.4,3.02 0.58,6.09 0.58,9.12 0,3.04 -0.18,6.1 -0.55,9.11 -9.22,36.83 55.27,165.8 82.94,202.7 27.67,36.89 73.72,73.72 64.5,110.53 -9.23,36.81 230.29,138.21 257.96,73.72 27.67,-64.5 27.67,-101.63 36.82,-119.76 9.16,-18.13 18.45,-147.43 -27.67,-165.8 -46.11,-18.36 -18.44,-340.82 -64.49,-405.32 -15.64,-21.5 -39.09,-93.81 -63.48,-181.59 -9.69,-34.23 -19.46,-70.74 -29,-107.33 -38.72,-149.54 -73.35,-300.48 -73.35,-300.48l9.22 -1077.83 -506.71 -64.5 -12.97 28.69 -25.88 56.83 -6.96 15.95z"/>
  <path class="fil2" d="M1539.05 6442.1c0,0 -73.72,-73.72 -110.54,0 -36.81,73.72 -73.71,359.59 -138.21,423.76 -64.49,64.18 -147.43,386.96 -55.27,405.32 92.17,18.37 193.47,-27.67 202.7,-82.94 9.22,-55.27 202.69,-340.82 202.69,-368.5 0,-27.68 -128.98,-128.99 -128.98,-128.99l27.61 -248.65z"/>
  <path class="fil2" d="M2671.83 4166.37c0,0 -119.76,1077.83 -147.44,1179.15 -27.68,101.32 -175.02,488.26 -221.07,552.75 -46.04,64.5 -340.82,589.57 -377.73,617.56 -36.9,27.98 -110.53,101.62 -110.53,101.62 0,0 -138.21,138.21 -156.34,165.8 -18.13,27.59 -175.03,-55.27 -184.25,-110.53 -9.22,-55.26 9.22,-147.44 18.45,-184.25 9.22,-36.81 -18.45,-92.08 9.22,-119.75 27.67,-27.68 165.8,-165.81 165.8,-230.3 0,-64.49 239.52,-442.21 331.6,-525.08 92.09,-82.87 73.72,-221.07 73.72,-221.07l0.01 -562.31 -506.71 -156.34c0,0 27.67,-442.21 92.09,-442.21 64.41,0 911.87,-147.67 1013.18,-65.04z"/>
  <circle class="fil11" cx="1925.68" cy="2324.26" r="304"/>
  <path class="fil11" d="M2026.99 2563.85c0,0 36.82,138.21 82.94,175.02 46.12,36.81 -119.75,193.47 -119.75,193.47l-313.24 18.45 -55.27 -175.02c0,0 101.62,-202.7 73.72,-331.61 -27.9,-128.9 331.6,119.69 331.6,119.69z"/>
  <path class="fil12" d="M2155.98 2720.19c0,0 -82.94,9.22 -101.62,36.82 -18.68,27.6 -147.44,110.54 -248.74,92.09 -101.31,-18.45 -165.81,-46.05 -184.25,-36.83 -18.45,9.23 -55.27,202.7 -55.27,202.7l101.62 294.79 -18.45 810.64 -27.67 221.07c0,0 -55.27,-73.72 165.8,-27.67 221.07,46.04 506.71,-36.83 598.79,-46.05 92.09,-9.22 248.74,-36.82 257.97,-92.08 9.22,-55.26 -27.67,-257.97 -27.67,-257.97l-147.44 -617.55 -92.01 -331.05 -221.06 -248.91z"/>
  <path class="fil13" d="M2068.82 2678.76c0,0 78.17,-41.35 105.52,-4.45 27.36,36.89 377.73,92.08 377.73,119.75 0,27.67 73.72,773.9 55.28,838.31 -18.45,64.41 36.82,138.21 36.82,138.21l64.49 276.34c0,0 175.03,525.09 101.62,543.53 -73.4,18.45 -138.21,0 -165.8,0 -27.59,0 -18.44,-350.04 -92.08,-442.21 -73.64,-92.16 -175.03,-322.46 -193.47,-368.51 -18.45,-46.04 -249.23,-681.66 -239.86,-755.37 9.38,-73.72 -50.25,-345.6 -50.25,-345.6z"/>
  <path class="fil13" d="M1686.17 2720.19c0,0 -73.72,0 -82.95,18.45 -9.22,18.45 -101.62,138.21 -138.21,165.8 -36.59,27.59 -165.8,147.52 -165.8,175.34 0,27.82 267.19,230.29 267.19,230.29 0,0 110.53,543.53 55.27,727.78 -55.26,184.25 -138.21,626.47 -101.62,654.06 36.59,27.59 119.75,36.83 119.75,0 0,-36.82 55.27,-432.99 101.63,-515.93 46.35,-82.94 184.24,-608.01 128.98,-755.37 -55.26,-147.35 -184.24,-700.42 -184.24,-700.42z"/>
  <path class="fil14" d="M2902.12 3632.38c0,0 9.23,285.57 -92.08,432.99 -101.31,147.43 -165.8,313.24 -165.8,313.24 0,0 -165.8,-46.05 -193.47,-101.62 -27.67,-55.58 -202.71,-9 -202.71,-27.44 0,-18.45 211.85,-110.53 230.3,-128.99 18.44,-18.46 82.94,-18.45 119.75,-55.27 36.81,-36.82 46.05,-119.75 46.05,-119.75l36.82 -239.52 221.14 -73.64z"/>
  <path class="fil2" d="M2135.03 2136.79c23.45,-2.11 47.52,-4.45 68.16,-15.63 46.28,-25.02 58.63,-96.07 23.45,-135.16 -9.69,-9.92 -20.59,-18.7 -32.36,-26.04l-70.36 -47.68c-31.27,-21.1 -62.53,-42.52 -98.81,-52.45 -32.67,-8.99 -67.15,-7.81 -101,-5.94 -65.66,4.07 -131.72,12.51 -193.47,35.18 -61.75,22.66 -119.37,60.58 -156.73,114.68 -59.26,85.98 -60.11,201.44 -27.44,300.49 32.68,99.04 94.67,185.26 155.8,269.76l32.21 -154.69c2.81,-13.75 6.48,-28.91 17.89,-37.05 28.46,-20.25 63.32,21.34 98.35,21.1 22.43,0 41.35,-18.68 49.87,-39.08 8.52,-20.41 9.07,-43.86 11.02,-66.21 4.14,-47.38 20.72,-113.35 65.66,-139.54 41.51,-24.63 110.78,-17.52 157.76,-21.74z"/>
  <path class="fil4" d="M2117.98 4680.74c0,0 -31.27,899.99 -49.56,927.58 -18.28,27.59 0,-930.24 0,-930.24l49.56 2.66z"/>
  <path class="fil13" d="M2478.36 2794.06l73.71 0c0,0 313.24,423.77 276.35,451.37 -36.9,27.6 0,101.62 0,101.62l73.71 138.21c0,0 92.09,82.94 64.5,101.62 -27.59,18.68 -64.5,92.09 -64.5,92.09 0,0 -184.25,-28.54 -239.52,82.39l-119.45 -150.88 -64.8 -816.42z"/>
  <rect class="fil2" transform="matrix(0.937861 -0.387325 0.387325 0.937861 2251.62 3034.65)" width="269.64" height="502.45"/>
  <ellipse class="fil7" transform="matrix(0.933518 -0.385584 0.385584 0.933518 2444.54 3154.83)" rx="53.93" ry="49.53"/>
  <path class="fil14" d="M2294.1 3530.99c0,0 -663.29,552.76 -773.9,377.73 -110.61,-175.02 119.76,-322.46 119.76,-322.46 0,0 202.69,9.23 432.99,-138.21l230.29 -101.62c0,0 210.29,-300.18 281.89,-185.89 71.61,114.28 -122.18,313.62 -291.03,370.45z"/>
  <path class="fil13" d="M1400.52 3042.8l-101.62 36.83 0 276.34 -36.83 55.27c0,0 9.23,110.53 36.83,138.21 27.6,27.68 82.94,18.45 64.49,82.94 -7.64,28.98 -11.52,58.94 -11.52,88.96 0,13.34 0.82,26.82 2.31,40.03 1.49,13.21 165.8,211.85 175.02,184.25 9.23,-27.6 138.21,-368.51 156.35,-368.51 18.13,0 -184.25,-534.31 -184.25,-534.31l-100.78 -0.01z"/>
  <path class="fil2" d="M2611.95 4438.4c0,0 95.21,-92.08 47.61,-96.7 -47.6,-4.61 -213.41,-96.7 -241.08,-50.65 -27.67,46.05 193.47,147.35 193.47,147.35z"/>
  <ellipse class="fil15" cx="4258.18" cy="2610.76" rx="132.88" ry="70.35"/>
  <path class="fil9 str1" d="M4766.29 2845.26c-299.65,-113.19 -599.31,-113.19 -898.97,0l0 -367.4c145.43,-43.93 297.37,-66.35 449.5,-66.35 152.12,0 304.06,22.42 449.54,66.28l-0.07 367.47z"/>
  <path class="fil9 str1" d="M4641.22 2769.28c-216.28,-81.66 -432.55,-81.66 -648.82,0l0 -265.16c105.07,-31.7 214.61,-47.87 324.42,-47.87 109.81,0 219.34,16.17 324.36,47.84l0.04 265.19z"/>
  <ellipse class="fil9 str1" cx="4305.09" cy="2579.48" rx="132.88" ry="70.35"/>
  <ellipse class="fil15" transform="matrix(0.994182 -0.202992 0.202992 0.994182 4341.92 3052.52)" rx="130.96" ry="69.33"/>
  <path class="fil9 str1" d="M4886.6 3180.93c-316.23,-50.96 -609.84,8.97 -880.84,179.8l-73.48 -359.99c226.83,-122.14 480.56,-186.33 738.28,-186.33 47.48,0 95.53,2.28 142.61,6.45l73.43 360.07z"/>
  <path class="fil9 str1" d="M4748.86 3131.53c-228.26,-36.8 -440.15,6.46 -635.69,129.77l-53.08 -259.69c163.68,-88.28 347.11,-134.62 533.15,-134.62 34.27,0 68.68,1.64 102.69,4.65l52.93 259.89z"/>
  <ellipse class="fil9 str1" transform="matrix(0.994182 -0.202992 0.202992 0.994182 4381.66 3012.47)" rx="130.96" ry="69.33"/>
  <ellipse class="fil15" transform="matrix(0.0704281 -1.01225 1.01225 0.0704281 4314.22 3490.1)" rx="69.33" ry="130.96"/>
  <path class="fil9 str1" d="M4804.91 3759.25c-291.06,-133.73 -589.99,-154.57 -896.78,-62.54l25.48 -366.55c112.91,-25.59 228.95,-38.69 344.8,-38.69 188.59,0 375.66,34.38 551.89,101.23l-25.39 366.55z"/>
  <path class="fil9 str1" d="M4685.38 3674.83c-210.07,-96.52 -425.82,-111.53 -647.25,-45.04l18.37 -264.53c81.64,-18.5 165.27,-27.95 249.03,-27.95 136,0 271.17,24.81 398.26,72.93l-18.41 264.59z"/>
  <ellipse class="fil9 str1" transform="matrix(0.0704281 -1.01225 1.01225 0.0704281 4363.19 3462.09)" rx="69.33" ry="130.96"/>
  <path class="fil9 str1" d="M3691.4 2853.79c0,0 -453.34,-78.56 -777.16,161.81"/>
  <polygon class="fil10" points="2928.23,2934.85 2943.16,2939.54 2919.79,3013.02 2994.84,3030.92 2991.16,3046.17 2899.85,3024.36 "/>
  <path class="fil16" d="M2838.85 672.73c-0.87,0.22 -1.74,0.46 -2.61,0.73 0.02,-30.37 -41.54,-71.09 -70.62,-46.75 -23.4,-51.73 -92.87,-59.76 -111.24,6.07 -58.45,-20.55 -83.31,9.35 -87.75,66.81 -22.04,-14.45 -80.06,-10.31 -81.78,40.88 -17.61,-17.65 -77.01,-27.51 -93.31,14.46 -6.82,-6.44 -15.16,-6.13 -22.38,-4.07 -7.99,2.28 -16.24,5.85 -24.78,9.45 -9.08,3.82 -18.28,5.79 -28.04,6.66 -4.33,0.39 -14.53,0.17 -17.56,4.38 -7.7,10.68 23.79,12.69 29.48,12.43 13.23,-0.59 25.72,-5.17 38.89,-5.62 12.12,-0.41 22.51,2.29 33.75,5.45 10.65,2.99 20.93,10.61 31.24,14.77 22.11,8.9 44.17,13.15 68.03,7.01 17.59,-4.52 35.96,-20.45 35.96,-20.45 0,0 36.85,22.15 51.27,25.58 55.55,13.22 93.04,-13.49 104.49,-40 33.18,39.45 112.41,44.07 127.44,-13.6 19.67,20.06 66.58,33.74 89.31,0.79 11.33,-16.42 5.23,-45.86 -19.76,-46.37 4.3,-32.52 -22.5,-45.61 -50.03,-38.61z"/>
  <path class="fil16" d="M3561.84 368.92c2.08,-17.84 10.63,-38.17 25.13,-54.43 13.75,-15.42 33.08,-23.01 53.61,-22.73 34.48,0.47 79.49,25.72 88.67,60.72 8.44,-17.44 55.08,-4.98 68.8,4.62 19.66,13.75 31.09,40.5 44.91,59.92 11.69,-11.29 21.49,-14.27 28.9,-17.03 15.29,-5.67 31.07,-4.76 46.44,3.28 5.86,3.07 22.41,15.3 30.26,32.4 6.3,-3.93 16.46,-5.85 26.11,-5.73 13.15,0.16 26.46,7.98 35.82,17.03 2.22,2.14 9.48,11.23 9.48,11.23 0,0 11.34,-3.09 14.98,-3.85 14.18,-2.99 24.82,-0.37 38,5.1 14.68,6.09 28.27,8.78 44.11,10.57 6.72,0.75 25.42,-0.9 29,6.65 7.07,14.91 -21.39,16.08 -28.73,16.44 -15.29,0.76 -26.77,-4.66 -41.14,-7.31 -5.75,18.25 -28.83,17.4 -43.85,13.11 -7.21,-2.06 -25.53,-7.52 -25.53,-7.52 0,0 -9.06,5.73 -14.98,9.89 -13.77,9.67 -34.02,14.84 -50.39,15.54 -8.84,0.38 -16.95,0.28 -25.69,-1.74 -11.57,-2.68 -23.47,-6.15 -34.06,-11.56 -3.93,-2 -10.56,-4.59 -10.56,-4.59 0,0 -12.69,12.15 -17.84,15.83 -7.72,5.53 -15.55,10.07 -24.06,14.39 -42.76,21.69 -114.75,15.88 -133.69,-36.16 -11.24,21.29 -40.71,41.69 -76.55,37.16 -20.3,-2.56 -39.27,-19.66 -38.51,-40.98 -13.79,18.93 -60.38,27.13 -80.48,15.93 -13.09,-7.29 -25.14,-35.87 -8.16,-44.83 -24.55,6.79 -76.76,0.58 -71.59,-33.24 4.15,-27.19 32.71,-31.41 51.43,-25.86 -1.42,-50.11 58.75,-66.23 90.16,-32.25z"/>
  <path class="fil16" d="M1597.86 283.65c2.08,-17.84 10.62,-38.17 25.13,-54.43 13.75,-15.42 33.08,-23.01 53.61,-22.73 34.48,0.46 79.49,25.72 88.67,60.72 8.44,-17.44 55.08,-4.98 68.8,4.61 19.66,13.76 31.09,40.51 44.91,59.93 11.68,-11.29 21.48,-14.28 28.9,-17.03 15.28,-5.68 31.07,-4.76 46.44,3.28 5.86,3.07 22.4,15.3 30.25,32.39 6.31,-3.92 16.47,-5.84 26.12,-5.72 13.15,0.16 26.46,7.98 35.82,17.03 2.22,2.14 9.48,11.23 9.48,11.23 0,0 11.34,-3.09 14.98,-3.86 14.18,-2.98 24.82,-0.37 38,5.1 14.67,6.09 28.26,8.79 44.11,10.57 6.72,0.76 25.42,-0.9 29,6.66 7.07,14.9 -21.39,16.07 -28.73,16.44 -15.3,0.76 -26.78,-4.66 -41.14,-7.31 -5.76,18.24 -28.83,17.4 -43.86,13.11 -7.21,-2.06 -25.52,-7.52 -25.52,-7.52 0,0 -9.06,5.73 -14.99,9.89 -13.76,9.67 -34.02,14.84 -50.39,15.54 -8.83,0.38 -16.95,0.28 -25.69,-1.74 -11.56,-2.68 -23.47,-6.15 -34.06,-11.56 -3.93,-2 -10.56,-4.59 -10.56,-4.59 0,0 -12.69,12.15 -17.83,15.83 -7.72,5.53 -15.55,10.06 -24.06,14.38 -42.76,21.7 -114.76,15.88 -133.69,-36.15 -11.25,21.29 -40.71,41.69 -76.55,37.16 -20.3,-2.56 -39.27,-19.66 -38.51,-40.98 -13.8,18.93 -60.38,27.13 -80.48,15.93 -13.09,-7.29 -25.14,-35.88 -8.16,-44.84 -24.56,6.8 -76.76,0.58 -71.6,-33.23 4.16,-27.19 32.72,-31.41 51.44,-25.86 -1.42,-50.11 58.75,-66.24 90.16,-32.25z"/>
  <g id="_1833051285840">
   <path class="fil17" d="M3453.32 5088.21c0,11.09 -9,20.09 -20.1,20.09 -11.09,0 -20.09,-9 -20.09,-20.09 0,-11.09 9,-20.1 20.09,-20.1 11.1,0 20.1,9.01 20.1,20.1z"/>
   <path class="fil17" d="M3453.32 5088.21l-13.06 0c-0.01,3.88 -3.16,7.03 -7.04,7.03 -3.88,0 -7.02,-3.15 -7.03,-7.03 0.01,-3.88 3.15,-7.04 7.03,-7.04 3.88,0 7.03,3.16 7.04,7.04l26.12 0c-0.01,-18.33 -14.84,-33.16 -33.16,-33.16 -18.31,0 -33.14,14.83 -33.15,33.16 0.01,18.32 14.84,33.16 33.15,33.16 18.32,0 33.15,-14.84 33.16,-33.16l-13.06 0z"/>
   <path class="fil17" d="M3669.33 5088.21c0,11.09 -8.99,20.09 -20.09,20.09 -11.1,0 -20.09,-9 -20.09,-20.09 0,-11.09 8.99,-20.1 20.09,-20.1 11.1,0 20.09,9.01 20.09,20.1z"/>
   <path class="fil17" d="M3669.33 5088.21l-13.06 0c-0.01,3.88 -3.15,7.03 -7.03,7.03 -3.88,0 -7.03,-3.15 -7.03,-7.03 0,-3.88 3.15,-7.04 7.03,-7.04 3.88,0 7.02,3.16 7.03,7.04l26.13 0c-0.01,-18.33 -14.85,-33.16 -33.16,-33.16 -18.31,0 -33.15,14.83 -33.16,33.16 0.01,18.32 14.85,33.16 33.16,33.16 18.31,0 33.15,-14.84 33.16,-33.16l-13.07 0z"/>
   <path class="fil17" d="M3885.35 5088.21c0,11.09 -9,20.09 -20.1,20.09 -11.09,0 -20.09,-9 -20.09,-20.09 0,-11.09 9,-20.1 20.09,-20.1 11.1,0 20.1,9.01 20.1,20.1z"/>
   <path class="fil17" d="M3885.35 5088.21l-13.06 0c-0.01,3.88 -3.16,7.03 -7.04,7.03 -3.88,0 -7.02,-3.15 -7.03,-7.03 0.01,-3.88 3.15,-7.04 7.03,-7.04 3.88,0 7.03,3.16 7.04,7.04l26.12 0c-0.01,-18.33 -14.84,-33.16 -33.16,-33.16 -18.31,0 -33.14,14.83 -33.15,33.16 0.01,18.32 14.84,33.16 33.15,33.16 18.32,0 33.15,-14.84 33.16,-33.16l-13.06 0z"/>
   <path class="fil17" d="M4101.37 5088.21c0,11.09 -9,20.09 -20.1,20.09 -11.1,0 -20.1,-9 -20.1,-20.09 0,-11.09 9,-20.1 20.1,-20.1 11.1,0 20.1,9.01 20.1,20.1z"/>
   <path class="fil17" d="M4101.37 5088.21l-13.07 0c-0.01,3.88 -3.15,7.03 -7.03,7.03 -3.88,0 -7.02,-3.15 -7.04,-7.03 0.02,-3.88 3.16,-7.04 7.04,-7.04 3.88,0 7.02,3.16 7.03,7.04l26.13 0c-0.02,-18.33 -14.85,-33.16 -33.16,-33.16 -18.31,0 -33.15,14.83 -33.16,33.16 0.01,18.32 14.85,33.16 33.16,33.16 18.31,0 33.14,-14.84 33.16,-33.16l-13.06 0z"/>
   <path class="fil17" d="M3453.32 5244.22c0,11.09 -9,20.1 -20.1,20.1 -11.09,0 -20.09,-9.01 -20.09,-20.1 0,-11.11 9,-20.09 20.09,-20.09 11.1,0 20.1,8.98 20.1,20.09z"/>
   <path class="fil17" d="M3453.32 5244.22l-13.06 0c-0.01,3.88 -3.16,7.02 -7.04,7.03 -3.88,-0.01 -7.02,-3.15 -7.03,-7.03 0.01,-3.88 3.15,-7.03 7.03,-7.03 3.88,0 7.03,3.15 7.04,7.03l26.12 0c-0.01,-18.33 -14.84,-33.15 -33.16,-33.15 -18.31,0 -33.14,14.82 -33.15,33.15 0.01,18.31 14.84,33.14 33.15,33.16 18.32,-0.02 33.15,-14.85 33.16,-33.16l-13.06 0z"/>
   <path class="fil17" d="M3669.33 5244.22c0,11.09 -8.99,20.1 -20.09,20.1 -11.1,0 -20.09,-9.01 -20.09,-20.1 0,-11.11 8.99,-20.09 20.09,-20.09 11.1,0 20.09,8.98 20.09,20.09z"/>
   <path class="fil17" d="M3669.33 5244.22l-13.06 0c-0.01,3.88 -3.15,7.02 -7.03,7.03 -3.88,-0.01 -7.03,-3.15 -7.03,-7.03 0,-3.88 3.15,-7.03 7.03,-7.03 3.88,0 7.02,3.15 7.03,7.03l26.13 0c-0.01,-18.33 -14.85,-33.15 -33.16,-33.15 -18.31,0 -33.15,14.82 -33.16,33.15 0.01,18.31 14.85,33.14 33.16,33.16 18.31,-0.02 33.15,-14.85 33.16,-33.16l-13.07 0z"/>
   <path class="fil17" d="M3885.35 5244.22c0,11.09 -9,20.1 -20.1,20.1 -11.09,0 -20.09,-9.01 -20.09,-20.1 0,-11.11 9,-20.09 20.09,-20.09 11.1,0 20.1,8.98 20.1,20.09z"/>
   <path class="fil17" d="M3885.35 5244.22l-13.06 0c-0.01,3.88 -3.16,7.02 -7.04,7.03 -3.88,-0.01 -7.02,-3.15 -7.03,-7.03 0.01,-3.88 3.15,-7.03 7.03,-7.03 3.88,0 7.03,3.15 7.04,7.03l26.12 0c-0.01,-18.33 -14.84,-33.15 -33.16,-33.15 -18.31,0 -33.14,14.82 -33.15,33.15 0.01,18.31 14.84,33.14 33.15,33.16 18.32,-0.02 33.15,-14.85 33.16,-33.16l-13.06 0z"/>
   <path class="fil17" d="M4101.37 5244.22c0,11.09 -9,20.1 -20.1,20.1 -11.1,0 -20.1,-9.01 -20.1,-20.1 0,-11.11 9,-20.09 20.1,-20.09 11.1,0 20.1,8.98 20.1,20.09z"/>
   <path class="fil17" d="M4101.37 5244.22l-13.07 0c-0.01,3.88 -3.15,7.02 -7.03,7.03 -3.88,-0.01 -7.02,-3.15 -7.04,-7.03 0.02,-3.88 3.16,-7.03 7.04,-7.03 3.88,0 7.02,3.15 7.03,7.03l26.13 0c-0.02,-18.33 -14.85,-33.15 -33.16,-33.15 -18.31,0 -33.15,14.82 -33.16,33.15 0.01,18.31 14.85,33.14 33.16,33.16 18.31,-0.02 33.14,-14.85 33.16,-33.16l-13.06 0z"/>
   <path class="fil17" d="M3453.32 5400.22c0,11.11 -9,20.09 -20.1,20.09 -11.09,0 -20.09,-8.98 -20.09,-20.09 0,-11.09 9,-20.1 20.09,-20.1 11.1,0 20.1,9.01 20.1,20.1z"/>
   <path class="fil17" d="M3453.32 5400.22l-13.06 0c-0.01,3.88 -3.16,7.03 -7.04,7.03 -3.88,0 -7.02,-3.15 -7.03,-7.03 0.01,-3.88 3.15,-7.02 7.03,-7.04 3.88,0.02 7.03,3.16 7.04,7.04l26.12 0c-0.01,-18.31 -14.84,-33.14 -33.16,-33.16 -18.31,0.02 -33.14,14.85 -33.15,33.16 0.01,18.32 14.84,33.15 33.15,33.15 18.32,0 33.15,-14.83 33.16,-33.15l-13.06 0z"/>
   <path class="fil17" d="M3669.33 5400.22c0,11.11 -8.99,20.09 -20.09,20.09 -11.1,0 -20.09,-8.98 -20.09,-20.09 0,-11.09 8.99,-20.1 20.09,-20.1 11.1,0 20.09,9.01 20.09,20.1z"/>
   <path class="fil17" d="M3669.33 5400.22l-13.06 0c-0.01,3.88 -3.15,7.03 -7.03,7.03 -3.88,0 -7.03,-3.15 -7.03,-7.03 0,-3.88 3.15,-7.02 7.03,-7.04 3.88,0.02 7.02,3.16 7.03,7.04l26.13 0c-0.01,-18.31 -14.85,-33.14 -33.16,-33.16 -18.31,0.02 -33.15,14.85 -33.16,33.16 0.01,18.32 14.85,33.15 33.16,33.15 18.31,0 33.15,-14.83 33.16,-33.15l-13.07 0z"/>
   <path class="fil17" d="M3885.35 5400.22c0,11.11 -9,20.09 -20.1,20.09 -11.09,0 -20.09,-8.98 -20.09,-20.09 0,-11.09 9,-20.1 20.09,-20.1 11.1,0 20.1,9.01 20.1,20.1z"/>
   <path class="fil17" d="M3885.35 5400.22l-13.06 0c-0.01,3.88 -3.16,7.03 -7.04,7.03 -3.88,0 -7.02,-3.15 -7.03,-7.03 0.01,-3.88 3.15,-7.02 7.03,-7.04 3.88,0.02 7.03,3.16 7.04,7.04l26.12 0c-0.01,-18.31 -14.84,-33.14 -33.16,-33.16 -18.31,0.02 -33.14,14.85 -33.15,33.16 0.01,18.32 14.84,33.15 33.15,33.15 18.32,0 33.15,-14.83 33.16,-33.15l-13.06 0z"/>
   <path class="fil17" d="M4101.37 5400.22c0,11.11 -9,20.09 -20.1,20.09 -11.1,0 -20.1,-8.98 -20.1,-20.09 0,-11.09 9,-20.1 20.1,-20.1 11.1,0 20.1,9.01 20.1,20.1z"/>
   <path class="fil17" d="M4101.37 5400.22l-13.07 0c-0.01,3.88 -3.15,7.03 -7.03,7.03 -3.88,0 -7.02,-3.15 -7.04,-7.03 0.02,-3.88 3.16,-7.02 7.04,-7.04 3.88,0.02 7.02,3.16 7.03,7.04l26.13 0c-0.02,-18.31 -14.85,-33.14 -33.16,-33.16 -18.31,0.02 -33.15,14.85 -33.16,33.16 0.01,18.32 14.85,33.15 33.16,33.15 18.31,0 33.14,-14.83 33.16,-33.15l-13.06 0z"/>
   <path class="fil17" d="M3453.32 5556.23c0,11.09 -9,20.09 -20.1,20.09 -11.09,0 -20.09,-9 -20.09,-20.09 0,-11.11 9,-20.09 20.09,-20.09 11.1,0 20.1,8.98 20.1,20.09z"/>
   <path class="fil17" d="M3453.32 5556.23l-13.06 0c-0.01,3.87 -3.16,7.03 -7.04,7.03 -3.88,0 -7.02,-3.16 -7.03,-7.03 0.01,-3.9 3.15,-7.03 7.03,-7.03 3.89,0 7.03,3.13 7.04,7.03l26.12 0c-0.01,-18.33 -14.85,-33.16 -33.16,-33.16 -18.3,0 -33.14,14.83 -33.15,33.16 0.01,18.33 14.84,33.15 33.15,33.15 18.32,0 33.15,-14.82 33.16,-33.15l-13.06 0z"/>
   <path class="fil17" d="M3669.33 5556.23c0,11.09 -8.99,20.09 -20.09,20.09 -11.1,0 -20.09,-9 -20.09,-20.09 0,-11.11 8.99,-20.09 20.09,-20.09 11.1,0 20.09,8.98 20.09,20.09z"/>
   <path class="fil17" d="M3669.33 5556.23l-13.06 0c-0.01,3.87 -3.15,7.03 -7.03,7.03 -3.88,0 -7.03,-3.16 -7.03,-7.03 0,-3.9 3.14,-7.03 7.03,-7.03 3.89,0 7.02,3.13 7.03,7.03l26.13 0c-0.01,-18.33 -14.86,-33.16 -33.16,-33.16 -18.31,0 -33.15,14.83 -33.16,33.16 0.01,18.33 14.85,33.15 33.16,33.15 18.31,0 33.15,-14.82 33.16,-33.15l-13.07 0z"/>
   <path class="fil17" d="M3885.35 5556.23c0,11.09 -9,20.09 -20.1,20.09 -11.09,0 -20.09,-9 -20.09,-20.09 0,-11.11 9,-20.09 20.09,-20.09 11.1,0 20.1,8.98 20.1,20.09z"/>
   <path class="fil17" d="M3885.35 5556.23l-13.06 0c-0.01,3.87 -3.16,7.03 -7.04,7.03 -3.88,0 -7.02,-3.16 -7.03,-7.03 0.01,-3.9 3.15,-7.03 7.03,-7.03 3.89,0 7.03,3.13 7.04,7.03l26.12 0c-0.01,-18.33 -14.85,-33.16 -33.16,-33.16 -18.3,0 -33.14,14.83 -33.15,33.16 0.01,18.33 14.84,33.15 33.15,33.15 18.32,0 33.15,-14.82 33.16,-33.15l-13.06 0z"/>
   <path class="fil17" d="M4101.37 5556.23c0,11.09 -9,20.09 -20.1,20.09 -11.1,0 -20.1,-9 -20.1,-20.09 0,-11.11 9,-20.09 20.1,-20.09 11.1,0 20.1,8.98 20.1,20.09z"/>
   <path class="fil17" d="M4101.37 5556.23l-13.07 0c-0.01,3.87 -3.15,7.03 -7.03,7.03 -3.88,0 -7.02,-3.16 -7.04,-7.03 0.02,-3.9 3.15,-7.03 7.04,-7.03 3.88,0 7.02,3.13 7.03,7.03l26.13 0c-0.02,-18.33 -14.86,-33.16 -33.16,-33.16 -18.31,0 -33.15,14.83 -33.16,33.16 0.01,18.33 14.85,33.15 33.16,33.15 18.31,0 33.14,-14.82 33.16,-33.15l-13.06 0z"/>
   <path class="fil17" d="M3453.32 5712.22c0,11.12 -9,20.09 -20.1,20.09 -11.09,0 -20.09,-8.97 -20.09,-20.09 0,-11.09 9,-20.09 20.09,-20.09 11.1,0 20.1,9 20.1,20.09z"/>
   <path class="fil17" d="M3453.32 5712.22l-13.06 0c-0.01,3.9 -3.15,7.03 -7.04,7.03 -3.88,0 -7.02,-3.13 -7.03,-7.03 0.01,-3.88 3.15,-7.01 7.03,-7.03 3.88,0.02 7.03,3.15 7.04,7.03l26.12 0c-0.01,-18.3 -14.84,-33.14 -33.16,-33.15 -18.31,0.01 -33.14,14.85 -33.15,33.15 0.01,18.33 14.85,33.16 33.15,33.16 18.31,0 33.15,-14.83 33.16,-33.16l-13.06 0z"/>
   <path class="fil17" d="M3669.33 5712.22c0,11.12 -8.99,20.09 -20.09,20.09 -11.1,0 -20.09,-8.97 -20.09,-20.09 0,-11.09 8.99,-20.09 20.09,-20.09 11.1,0 20.09,9 20.09,20.09z"/>
   <path class="fil17" d="M3669.33 5712.22l-13.06 0c-0.01,3.9 -3.14,7.03 -7.03,7.03 -3.89,0 -7.03,-3.13 -7.03,-7.03 0,-3.88 3.15,-7.01 7.03,-7.03 3.88,0.02 7.02,3.15 7.03,7.03l26.13 0c-0.01,-18.3 -14.85,-33.14 -33.16,-33.15 -18.31,0.01 -33.15,14.85 -33.16,33.15 0.01,18.33 14.85,33.16 33.16,33.16 18.3,0 33.15,-14.83 33.16,-33.16l-13.07 0z"/>
   <path class="fil17" d="M3885.35 5712.22c0,11.12 -9,20.09 -20.1,20.09 -11.09,0 -20.09,-8.97 -20.09,-20.09 0,-11.09 9,-20.09 20.09,-20.09 11.1,0 20.1,9 20.1,20.09z"/>
   <path class="fil17" d="M3885.35 5712.22l-13.06 0c-0.01,3.9 -3.15,7.03 -7.04,7.03 -3.88,0 -7.02,-3.13 -7.03,-7.03 0.01,-3.88 3.15,-7.01 7.03,-7.03 3.88,0.02 7.03,3.15 7.04,7.03l26.12 0c-0.01,-18.3 -14.84,-33.14 -33.16,-33.15 -18.31,0.01 -33.14,14.85 -33.15,33.15 0.01,18.33 14.85,33.16 33.15,33.16 18.31,0 33.15,-14.83 33.16,-33.16l-13.06 0z"/>
   <path class="fil17" d="M4101.37 5712.22c0,11.12 -9,20.09 -20.1,20.09 -11.1,0 -20.1,-8.97 -20.1,-20.09 0,-11.09 9,-20.09 20.1,-20.09 11.1,0 20.1,9 20.1,20.09z"/>
   <path class="fil17" d="M4101.37 5712.22l-13.07 0c-0.01,3.9 -3.15,7.03 -7.03,7.03 -3.89,0 -7.02,-3.13 -7.04,-7.03 0.02,-3.88 3.16,-7.01 7.04,-7.03 3.88,0.02 7.02,3.15 7.03,7.03l26.13 0c-0.02,-18.3 -14.85,-33.14 -33.16,-33.15 -18.31,0.01 -33.15,14.85 -33.16,33.15 0.01,18.33 14.85,33.16 33.16,33.16 18.3,0 33.14,-14.83 33.16,-33.16l-13.06 0z"/>
  </g>
  <path class="fil18" d="M5959.26 1133.9c3.32,-0.69 12.3,-3.11 15.06,-6.19 0.44,-0.49 1.16,-1.57 2.07,-2.93 5.37,-8.04 17.95,-26.87 38.42,-24.38 3.22,0.39 6.53,1.31 9.84,2.73 18.56,7.96 26.24,21.84 31.85,31.98 3.23,5.84 5.78,10.45 9.16,11.54 1.06,0.34 2.06,0.57 2.99,0.68 3.29,0.4 5.29,-0.63 5.94,-3.06 2.42,-9.12 3.54,-20.73 4.71,-33.02 1.95,-20.34 4.16,-43.38 13.09,-60.59 14.56,-28.05 41.97,-48.74 63.99,-65.37 5.51,-4.16 10.7,-8.08 15.2,-11.72 1.76,-1.71 3.56,-3.24 5.3,-4.71 2.53,-2.15 4.92,-4.18 6.76,-6.39 7.87,-9.51 13.92,-20.64 19.27,-31.21 0.53,-1.16 1.05,-2.33 1.58,-3.52 0.83,-1.9 1.68,-3.33 2.57,-4.35 2.81,-4.96 5.97,-9.45 9.93,-8.96 0.62,0.07 1.24,0.27 1.84,0.59 6.51,3.4 6.28,17.72 6.09,30.36 -0.1,6.49 -0.2,12.62 0.69,15.75 1.15,4.03 3.37,6.61 5.72,9.33 2.79,3.23 5.67,6.56 6.51,12.29 0.84,5.72 -1.07,8.72 -2.91,11.63 -1.55,2.44 -3.02,4.75 -2.88,8.91 0.14,4.37 1.93,6.94 3.82,9.66 2.02,2.9 4.1,5.9 3.91,10.89 -0.2,5.17 -3.29,8.16 -6.28,11.05 -2.61,2.53 -5.08,4.92 -5.49,8.7 -0.34,3.2 1.36,5.03 3.52,7.33 2.82,3.03 6.33,6.79 4.08,14.54 -1.48,5.13 -5.26,7.43 -8.6,9.47 -3.21,1.96 -5.19,3.29 -5.38,5.95 -0.14,2.02 0.21,4.24 0.59,6.59 0.9,5.61 1.93,11.97 -3.47,18.14 -1.95,2.23 -8.04,6.43 -14.76,10.66 17.71,-5.64 43.79,-12.3 70.33,-13.22 43.54,-1.51 86.98,-13.04 110.33,-19.24 10.98,-2.91 15.92,-4.19 17.78,-3.97 1.2,0.15 1.51,0.94 1.59,1.27 0.29,1.28 -0.91,2.3 -3.72,4.11l-7.55 4.86c-10.13,6.51 -18.08,11.61 -21.51,14.25 1.56,-0.35 3.82,-0.96 6.74,-1.83 1.55,-0.46 2.7,-0.07 3.24,0.97 0.26,0.49 0.34,1.09 0.25,1.82 -0.99,8.12 -29.23,45.2 -66.22,79.8 -26.69,24.97 -77.15,66.17 -115.19,61.54 -2.27,-0.28 -4.49,-0.72 -6.62,-1.31 13.22,17.49 63.19,65.42 109.48,91.58 55.94,31.62 81.01,47.42 81.67,57.46 0.15,2.28 -0.87,4.28 -3.05,5.92 -2.89,2.19 -5.45,3.06 -8.05,2.74 -1.84,-0.22 -3.45,-1.02 -5.01,-1.78 -1.6,-0.78 -3.25,-1.59 -5.2,-1.83 -2.18,-0.27 -4.53,0.22 -7.2,1.49 -6.65,3.16 -14.58,6.43 -24.48,5.23 -10.31,-1.26 -21.15,-7.16 -33.12,-18.03 -2.24,-2.04 -4.37,-3.09 -6.91,-3.39 -1.43,-0.18 -2.87,-0.11 -4.39,-0.04 -1.65,0.08 -3.36,0.16 -5.21,-0.07 0,0 0,0 0,0 -4.22,-0.51 -8.04,-2.57 -12.03,-6.47 -29.4,-28.8 -64.19,-37.75 -101.03,-47.23 -43.46,-11.19 -88.39,-22.75 -132.91,-66.5 -37.89,-37.22 -42.78,-65.83 -46.01,-84.76 -0.35,-1.99 -0.67,-3.87 -1.01,-5.63 -3.4,-17.61 -6.13,-21.96 -9.96,-23.83 -2.55,-1.24 -8.8,-4.69 -14.32,-7.74 -3.88,-2.14 -7.23,-4 -8.17,-4.45 -1.38,-0.67 -1.44,-1.58 -1.36,-2.06 0.09,-0.49 0.29,-1.63 4.09,-2.03z"/>
  <path class="fil18" d="M6502.88 1931.79c2.46,-0.51 9.13,-2.31 11.18,-4.59 0.32,-0.37 0.86,-1.17 1.54,-2.18 3.98,-5.97 13.31,-19.94 28.5,-18.09 2.39,0.29 4.85,0.97 7.31,2.02 13.77,5.91 19.47,16.21 23.63,23.74 2.4,4.33 4.29,7.76 6.8,8.56 0.79,0.25 1.53,0.42 2.22,0.51 2.44,0.29 3.93,-0.47 4.41,-2.27 1.8,-6.77 2.62,-15.39 3.49,-24.51 1.45,-15.09 3.09,-32.19 9.72,-44.96 10.8,-20.82 31.14,-36.18 47.49,-48.52 4.08,-3.08 7.94,-5.99 11.27,-8.7 1.31,-1.26 2.65,-2.39 3.94,-3.49 1.88,-1.59 3.65,-3.1 5.01,-4.74 5.84,-7.06 10.34,-15.32 14.31,-23.16 0.39,-0.86 0.78,-1.74 1.17,-2.62 0.62,-1.41 1.24,-2.46 1.9,-3.22 2.09,-3.68 4.43,-7.01 7.38,-6.66 0.46,0.06 0.92,0.21 1.36,0.44 4.83,2.53 4.66,13.16 4.52,22.54 -0.07,4.81 -0.15,9.36 0.51,11.68 0.85,3 2.5,4.91 4.25,6.93 2.07,2.39 4.2,4.87 4.83,9.12 0.62,4.24 -0.79,6.47 -2.16,8.63 -1.15,1.81 -2.24,3.52 -2.14,6.61 0.11,3.25 1.43,5.15 2.84,7.17 1.49,2.15 3.04,4.38 2.9,8.09 -0.15,3.83 -2.44,6.05 -4.66,8.19 -1.94,1.88 -3.77,3.65 -4.07,6.46 -0.26,2.38 1,3.73 2.6,5.44 2.1,2.25 4.7,5.04 3.04,10.79 -1.1,3.8 -3.91,5.52 -6.39,7.03 -2.38,1.45 -3.85,2.44 -3.99,4.41 -0.11,1.5 0.16,3.15 0.44,4.89 0.67,4.17 1.43,8.89 -2.58,13.47 -1.45,1.65 -5.97,4.76 -10.95,7.91 13.14,-4.19 32.5,-9.14 52.19,-9.82 32.31,-1.12 64.55,-9.67 81.88,-14.27 8.15,-2.17 11.81,-3.12 13.19,-2.95 0.9,0.11 1.12,0.7 1.18,0.94 0.22,0.95 -0.67,1.71 -2.76,3.05l-5.6 3.61c-7.52,4.83 -13.42,8.62 -15.96,10.58 1.16,-0.26 2.83,-0.72 5,-1.36 1.15,-0.35 2,-0.05 2.4,0.71 0.19,0.37 0.25,0.82 0.19,1.36 -0.74,6.02 -21.69,33.54 -49.14,59.22 -19.81,18.53 -57.26,49.1 -85.49,45.67 -1.69,-0.21 -3.33,-0.53 -4.91,-0.98 9.81,12.98 46.9,48.55 81.25,67.97 41.51,23.46 60.11,35.19 60.6,42.64 0.12,1.7 -0.64,3.17 -2.26,4.39 -2.15,1.63 -4.04,2.27 -5.98,2.04 -1.36,-0.17 -2.55,-0.76 -3.71,-1.32 -1.19,-0.59 -2.41,-1.19 -3.86,-1.36 -1.62,-0.2 -3.37,0.16 -5.34,1.1 -4.94,2.35 -10.82,4.78 -18.17,3.88 -7.66,-0.93 -15.69,-5.31 -24.58,-13.38 -1.66,-1.51 -3.24,-2.29 -5.13,-2.51 -1.06,-0.13 -2.13,-0.08 -3.25,-0.03 -1.23,0.06 -2.5,0.12 -3.88,-0.05 0,0 0,0 0,0 -3.12,-0.38 -5.96,-1.91 -8.92,-4.8 -21.82,-21.38 -47.64,-28.02 -74.98,-35.06 -32.25,-8.3 -65.59,-16.88 -98.63,-49.34 -28.12,-27.63 -31.75,-48.86 -34.15,-62.9 -0.25,-1.48 -0.49,-2.88 -0.74,-4.18 -2.53,-13.08 -4.55,-16.3 -7.4,-17.69 -1.89,-0.92 -6.53,-3.48 -10.62,-5.74 -2.88,-1.59 -5.37,-2.97 -6.07,-3.31 -1.02,-0.49 -1.07,-1.16 -1,-1.52 0.06,-0.36 0.21,-1.22 3.03,-1.51z"/>
  <path class="fil18" d="M6863.23 2618.09c2.11,-0.44 7.84,-1.98 9.6,-3.94 0.28,-0.31 0.74,-1 1.32,-1.88 3.43,-5.12 11.45,-17.12 24.5,-15.54 2.05,0.25 4.16,0.84 6.27,1.74 11.84,5.08 16.73,13.93 20.31,20.4 2.06,3.72 3.69,6.66 5.84,7.35 0.67,0.22 1.32,0.36 1.9,0.44 2.11,0.25 3.38,-0.4 3.79,-1.95 1.55,-5.82 2.26,-13.22 3.01,-21.06 1.24,-12.96 2.65,-27.66 8.34,-38.63 9.29,-17.88 26.76,-31.08 40.8,-41.68 3.51,-2.65 6.83,-5.15 9.69,-7.47 1.12,-1.09 2.27,-2.06 3.38,-3.01 1.62,-1.36 3.14,-2.66 4.31,-4.07 5.02,-6.06 8.88,-13.16 12.29,-19.9 0.33,-0.74 0.67,-1.49 1,-2.24 0.54,-1.21 1.07,-2.12 1.64,-2.78 1.8,-3.16 3.81,-6.02 6.34,-5.71 0.39,0.05 0.79,0.17 1.17,0.38 4.15,2.17 4,11.3 3.88,19.36 -0.06,4.13 -0.12,8.04 0.44,10.04 0.73,2.57 2.15,4.21 3.65,5.95 1.78,2.05 3.61,4.18 4.15,7.83 0.53,3.65 -0.68,5.56 -1.86,7.41 -0.99,1.56 -1.92,3.03 -1.83,5.69 0.09,2.78 1.23,4.42 2.43,6.16 1.29,1.84 2.62,3.76 2.5,6.94 -0.13,3.29 -2.1,5.2 -4.01,7.05 -1.66,1.61 -3.24,3.13 -3.5,5.54 -0.22,2.04 0.87,3.21 2.24,4.68 1.8,1.93 4.04,4.32 2.61,9.27 -0.95,3.26 -3.36,4.74 -5.49,6.03 -2.04,1.25 -3.3,2.1 -3.43,3.8 -0.09,1.29 0.14,2.7 0.38,4.2 0.58,3.58 1.23,7.63 -2.22,11.57 -1.24,1.42 -5.12,4.09 -9.4,6.79 11.29,-3.59 27.92,-7.84 44.84,-8.43 27.76,-0.96 55.46,-8.31 70.34,-12.26 7,-1.86 10.15,-2.68 11.34,-2.53 0.77,0.09 0.96,0.59 1.01,0.8 0.19,0.82 -0.58,1.47 -2.37,2.62l-4.81 3.1c-6.46,4.15 -11.53,7.41 -13.72,9.09 1,-0.22 2.43,-0.61 4.3,-1.17 0.99,-0.29 1.72,-0.04 2.06,0.62 0.17,0.31 0.22,0.7 0.16,1.16 -0.63,5.18 -18.63,28.82 -42.21,50.88 -17.02,15.92 -49.2,42.19 -73.45,39.24 -1.45,-0.18 -2.86,-0.46 -4.22,-0.84 8.43,11.15 40.29,41.71 69.8,58.39 35.67,20.16 51.65,30.24 52.07,36.64 0.1,1.45 -0.55,2.72 -1.94,3.77 -1.84,1.4 -3.48,1.95 -5.13,1.75 -1.18,-0.14 -2.2,-0.65 -3.2,-1.14 -1.02,-0.5 -2.07,-1.01 -3.31,-1.16 -1.39,-0.17 -2.89,0.14 -4.59,0.95 -4.25,2.01 -9.3,4.1 -15.61,3.33 -6.58,-0.8 -13.48,-4.56 -21.12,-11.5 -1.43,-1.29 -2.78,-1.96 -4.4,-2.16 -0.92,-0.11 -1.83,-0.07 -2.8,-0.02 -1.05,0.05 -2.15,0.1 -3.33,-0.04 0,0 0,0 0,0 -2.69,-0.33 -5.12,-1.64 -7.66,-4.13 -18.75,-18.36 -40.93,-24.07 -64.42,-30.12 -27.71,-7.13 -56.36,-14.5 -84.74,-42.39 -24.16,-23.74 -27.28,-41.97 -29.34,-54.04 -0.22,-1.27 -0.42,-2.47 -0.64,-3.59 -2.17,-11.23 -3.91,-14.01 -6.35,-15.2 -1.63,-0.79 -5.61,-2.99 -9.13,-4.93 -2.48,-1.37 -4.61,-2.55 -5.21,-2.84 -0.88,-0.43 -0.92,-1 -0.87,-1.31 0.06,-0.31 0.19,-1.04 2.61,-1.3z"/>
 </g>
</svg>
