<?xml version="1.0" encoding="utf-8"?>
<!-- Generator: Adobe Illustrator 21.0.0, SVG Export Plug-In . SVG Version: 6.00 Build 0)  -->
<svg version="1.1" id="Layer_1" xmlns="http://www.w3.org/2000/svg" xmlns:xlink="http://www.w3.org/1999/xlink" x="0px" y="0px"
	 viewBox="0 0 235.4 208.3" style="enable-background:new 0 0 235.4 208.3;" xml:space="preserve">
<style type="text/css">
	.st0{fill:#FFFFFF;fill-opacity:0.3608;}
	.st1{fill:#F5C9C9;}
	.st2{fill:#37474E;}
	.st3{fill:#455963;}
	.st4{fill:#253138;}
	.st5{fill:#EAEAEA;}
	.st6{fill:#FFA600;}
	.st7{fill:#A6A6A6;}
	.st8{fill:#FFFFFF;}
	.st9{fill:#C6C6C6;}
	.st10{fill:#AD6258;}
	.st11{fill:#FCBA64;}
	.st12{fill:#F7F7F7;}
	.st13{fill:#FFFFFF;fill-opacity:0.6;}
	.st14{fill:#FEFEFB;}
</style>
<g id="Layer_x0020_1">
	<path class="st0" d="M17.8,172.4c0,0-31-31.8-11.3-69.2c19.8-37.4,46.3-18.6,45-62.2c-1.3-43.6,61-47.3,80.8-34.6
		C152.2,19,152.1,34.2,193,29.2c40.9-5,48.7,36.9,38.1,58.3c-15.1,30.3,12.4,94.8-31.8,86C72.9,148.2,66.6,196.1,17.8,172.4
		L17.8,172.4z"/>
	<g id="_1832905901696">
		<path class="st1" d="M112.2,185.4c48.3,0,87.5,5.1,87.5,11.4c0,6.3-39.2,11.4-87.5,11.4c-48.3,0-87.5-5.1-87.5-11.4
			C24.7,190.6,63.8,185.4,112.2,185.4z"/>
	</g>
	<g id="_1833117646800">
		<polygon class="st2" points="113,64.8 178.1,64.8 178.1,192.5 113,192.5 		"/>
		<polygon class="st3" points="178.1,73.8 186.7,73.8 186.7,174.7 178.1,174.7 		"/>
		<polygon class="st4" points="178.1,73.8 180.4,73.8 180.4,174.7 178.1,174.7 		"/>
		<polygon class="st5" points="121.3,142.8 135.2,142.8 135.2,149 121.3,149 		"/>
		<polygon class="st5" points="138.6,142.8 152.5,142.8 152.5,149 138.6,149 		"/>
		<polygon class="st5" points="155.8,142.8 169.8,142.8 169.8,149 155.8,149 		"/>
		<polygon class="st5" points="121.3,151.6 135.2,151.6 135.2,157.8 121.3,157.8 		"/>
		<polygon class="st5" points="138.6,151.6 152.5,151.6 152.5,157.8 138.6,157.8 		"/>
		<polygon class="st5" points="155.8,151.6 169.8,151.6 169.8,157.8 155.8,157.8 		"/>
		<polygon class="st5" points="121.3,160.4 135.2,160.4 135.2,166.6 121.3,166.6 		"/>
		<polygon class="st5" points="138.6,160.4 152.5,160.4 152.5,166.6 138.6,166.6 		"/>
		<polygon class="st5" points="155.8,160.4 169.8,160.4 169.8,166.6 155.8,166.6 		"/>
		<polygon class="st5" points="121.3,169.3 135.2,169.3 135.2,175.5 121.3,175.5 		"/>
		<polygon class="st5" points="138.6,169.3 152.5,169.3 152.5,175.5 138.6,175.5 		"/>
		<polygon class="st5" points="155.8,169.3 169.8,169.3 169.8,175.5 155.8,175.5 		"/>
		<polygon class="st4" points="121.3,178.1 135.2,178.1 135.2,184.3 121.3,184.3 		"/>
		<polygon class="st6" points="138.6,178.1 152.5,178.1 152.5,184.3 138.6,184.3 		"/>
		<polygon class="st7" points="155.8,178.1 169.8,178.1 169.8,184.3 155.8,184.3 		"/>
		<polygon class="st4" points="116.5,57.6 174.6,57.6 174.6,139.1 116.5,139.1 		"/>
		<polygon class="st8" points="120.2,82.4 170.9,82.4 170.9,121.8 120.2,121.8 		"/>
		<polygon class="st8" points="126,42.5 165.1,42.5 165.1,72 126,72 		"/>
		<polygon class="st9" points="137.5,46.3 153.6,46.3 153.6,46.9 137.5,46.9 		"/>
		<polygon class="st9" points="141.4,48.1 149.7,48.1 149.7,48.7 141.4,48.7 		"/>
		<polygon class="st9" points="129.7,53.3 145.8,53.3 145.8,53.9 129.7,53.9 		"/>
		<polygon class="st9" points="129.7,55 149.7,55 149.7,55.6 129.7,55.6 		"/>
		<polygon class="st9" points="129.7,56.7 140.1,56.7 140.1,57.3 129.7,57.3 		"/>
		<polygon class="st9" points="129.7,58.5 147.5,58.5 147.5,59.1 129.7,59.1 		"/>
		<polygon class="st9" points="129.7,60.2 149.3,60.2 149.3,60.8 129.7,60.8 		"/>
		<polygon class="st9" points="129.7,61.9 147.7,61.9 147.7,62.5 129.7,62.5 		"/>
		<polygon class="st9" points="129.7,63.7 149.7,63.7 149.7,64.3 129.7,64.3 		"/>
		<polygon class="st9" points="129.7,65.4 148.1,65.4 148.1,66 129.7,66 		"/>
		<polygon class="st9" points="129.7,67.1 144.8,67.1 144.8,67.7 129.7,67.7 		"/>
		<polygon class="st9" points="129.7,68.9 149.5,68.9 149.5,69.5 129.7,69.5 		"/>
		<polygon class="st9" points="129.7,70.6 148.4,70.6 148.4,71.2 129.7,71.2 		"/>
		<polygon class="st9" points="155.3,55 161.4,55 161.4,55.6 155.3,55.6 		"/>
		<polygon class="st9" points="155.3,56.7 161.4,56.7 161.4,57.3 155.3,57.3 		"/>
		<polygon class="st9" points="155.3,58.5 161.4,58.5 161.4,59.1 155.3,59.1 		"/>
		<polygon class="st9" points="155.3,60.2 161.4,60.2 161.4,60.8 155.3,60.8 		"/>
		<polygon class="st9" points="155.3,61.9 161.4,61.9 161.4,62.5 155.3,62.5 		"/>
		<polygon class="st9" points="155.3,63.7 161.4,63.7 161.4,64.3 155.3,64.3 		"/>
		<polygon class="st9" points="155.3,65.4 161.4,65.4 161.4,66 155.3,66 		"/>
		<polygon class="st9" points="155.3,67.1 161.4,67.1 161.4,67.7 155.3,67.7 		"/>
		<polygon class="st9" points="155.3,68.9 161.4,68.9 161.4,69.5 155.3,69.5 		"/>
		<polygon class="st9" points="155.3,70.6 161.4,70.6 161.4,71.2 155.3,71.2 		"/>
		<path class="st7" d="M145.2,124.9c3.1,0,5.6,2.5,5.6,5.6c0,3.1-2.5,5.6-5.6,5.6s-5.6-2.5-5.6-5.6
			C139.7,127.4,142.2,124.9,145.2,124.9z"/>
		<polygon class="st7" points="121.5,124.9 134.5,124.9 134.5,129.2 121.5,129.2 		"/>
		<polygon class="st7" points="121.5,131.7 134.5,131.7 134.5,136 121.5,136 		"/>
		<polygon class="st7" points="156.8,124.9 169.8,124.9 169.8,129.2 156.8,129.2 		"/>
		<polygon class="st7" points="156.8,131.7 169.8,131.7 169.8,136 156.8,136 		"/>
		<path class="st6" d="M145.5,90.9c6.2,0,11.2,5,11.2,11.2c0,6.2-5,11.2-11.2,11.2c-6.2,0-11.2-5-11.2-11.2
			C134.4,95.9,139.4,90.9,145.5,90.9z"/>
		<polygon class="st4" points="143.9,110.1 138.1,104.2 140,102.3 143.4,105.8 150.5,94.7 152.8,96.1 		"/>
	</g>
	<path class="st4" d="M79.8,202.2c-0.8,0.3-24.8,0.2-25.8-0.4c-0.3-0.2-0.5-3.7-0.7-7.9c0-0.9,0-1.9-0.1-2.8c0-1.1,0-2.3,0-3.4
		c0-5,0-9.4,0-9.4H69v9.4v3.4l-0.1,2.8c0,0,9.2,4.1,10.1,4.9C79.9,199.5,80.6,201.9,79.8,202.2L79.8,202.2z"/>
	<path class="st8" d="M79.8,202.2c-0.8,0.3-24.8,0.2-25.8-0.4c-0.3-0.2-0.5-3.7-0.7-7.9c0-0.9,0-1.9-0.1-2.8c0-1.1,0-2.3,0-3.4H69
		v3.4l-0.1,2.8c0,0,9.2,4.1,10.1,4.9C79.9,199.5,80.6,201.9,79.8,202.2L79.8,202.2z"/>
	<path class="st4" d="M79.9,202.2c-0.5,0.2-10.8,0.2-18.2,0.1c-1.7,0-3.3-0.1-4.6-0.1c-1.8-0.1-2.9-0.2-3.1-0.3
		c-0.4-0.3-0.6-5.4-0.7-10.8h15.7l-0.1,2.8c0,0,9.2,4.2,10.2,4.9C80,199.5,80.7,202,79.9,202.2L79.9,202.2z"/>
	<path class="st4" d="M79.5,201.3c-4-0.1-20.4-0.2-24.4,0c0,0,0,0,0,0C59.2,201.5,75.5,201.4,79.5,201.3
		C79.6,201.3,79.6,201.3,79.5,201.3z"/>
	<path class="st4" d="M69.5,193c-1.6-0.3-3.5-0.1-4.8,1.1c0,0,0,0.1,0.1,0.1c1.5-0.5,3.1-0.8,4.7-1c0.1,0,0.1,0,0.1-0.1
		C69.6,193,69.5,193,69.5,193z"/>
	<path class="st4" d="M70.6,193.7c-1.6-0.3-3.5-0.1-4.8,1.1c0,0,0,0.1,0.1,0.1c1.5-0.5,3.1-0.8,4.7-1c0.1,0,0.1,0,0.1-0.1
		C70.7,193.7,70.7,193.7,70.6,193.7z"/>
	<path class="st4" d="M71.7,194.4c-1.6-0.3-3.5-0.1-4.8,1.1c0,0,0,0.1,0.1,0.1c1.5-0.5,3.1-0.8,4.7-1c0.1,0,0.1,0,0.1-0.1
		C71.8,194.4,71.8,194.4,71.7,194.4L71.7,194.4z"/>
	<path class="st4" d="M72.9,195.1c-1.6-0.3-3.5-0.1-4.8,1.1c0,0,0,0.1,0.1,0.1c1.5-0.5,3.1-0.8,4.7-1c0.1,0,0.1,0,0.1-0.1
		C73,195.1,73,195.1,72.9,195.1L72.9,195.1z"/>
	<path class="st4" d="M72.4,189.3c-0.6-0.9-1.8-0.5-2.5,0.1c-1.1,1-2,2.2-2.5,3.6c0,0,0,0.1,0,0.1c0,0.1,0.1,0.3,0.2,0.2
		c1.3-0.5,2.8-0.8,3.9-1.7C72.3,191.1,73,190.1,72.4,189.3z M69.6,192.1L69.6,192.1c-0.6,0.3-1.3,0.5-1.9,0.8c0.5-0.7,1-1.4,1.5-2.1
		c0.3-0.3,0.5-0.6,0.8-0.9c0.5-0.4,2.3-1.3,2.1,0.4C71.9,191.2,70.4,191.8,69.6,192.1L69.6,192.1z"/>
	<path class="st4" d="M63.4,192.6c1.3,0.6,2.8,0.5,4.2,0.7c0.1,0,0.2-0.1,0.2-0.2c0,0,0,0,0-0.1c0,0,0,0,0,0c0,0,0,0,0,0
		c-0.8-1.2-2-2.2-3.3-2.9c-0.8-0.4-2-0.5-2.4,0.5C61.8,191.6,62.7,192.3,63.4,192.6z M62.7,191.4L62.7,191.4
		c-0.7-1.6,1.3-1.2,1.9-0.9c0.4,0.2,0.7,0.4,1,0.7c0.7,0.5,1.3,1.1,2,1.7c-0.7-0.1-1.4-0.2-2.1-0.2
		C64.8,192.5,63.1,192.3,62.7,191.4L62.7,191.4z"/>
	<path class="st3" d="M48.1,111.6c0,0,4.2,41.8,4.3,42.3c0,0.1,0,0.9,0.1,2.2c0.2,7.2,0.8,29.6,0.8,29.6h17.3c0,0-1.1-26.6-1.8-32.8
		c-0.8-7.9-6-41.4-6-41.4S48.1,111.6,48.1,111.6z"/>
	<path class="st4" d="M54.5,155.4c-0.5-9.1-1.3-18.1-2.4-27.1c-0.6-5.1-1.3-10.1-2.1-15.2c0,0-0.1,0-0.1,0c1.3,9,2.3,18.1,3.1,27.2
		c0.8,9.1,1.4,18.1,1.7,27.2c0.2,5.1,0.4,10.3,0.5,15.4c0,0.1,0.1,0.1,0.1,0.1c0,0,0.1,0,0.1-0.1C55.3,173.7,55,164.6,54.5,155.4
		L54.5,155.4z"/>
	<path class="st4" d="M69.5,183c-0.5-0.1-0.9,0-1.4-0.1c-0.5,0-1,0-1.6,0c-1,0-2-0.1-3-0.1c-2,0-4,0-6,0c-0.6,0-1.1,0-1.7,0.1
		c-0.6,0-1.2,0.1-1.8,0.1c0,0,0,0,0,0c0,0,0,0,0,0c1,0,2,0.1,3.1,0.1c1,0,2,0.1,3,0.1c2,0,4,0,6-0.1c0.6,0,1.1,0,1.7,0
		c0.3,0,0.6,0,0.9,0C69,183,69.2,183.1,69.5,183C69.5,183,69.5,183,69.5,183C69.5,183,69.5,183,69.5,183L69.5,183z"/>
	<path class="st4" d="M48.1,111.6c0,0,4.2,41.8,4.3,42.3c0,0.1,0,0.9,0.1,2.2l8.1-44.5H48.1z"/>
	<path class="st4" d="M36.5,199.7c-0.9-0.2-21.9-11.7-22.4-12.7c-0.2-0.4,1.3-3.5,3.2-7.3l7.1-14l14.4,7.9l-4.6,7.9l-1.9,3.2
		l-1.4,2.4c0,0,6.1,8,6.5,9.1C37.9,197.4,37.4,199.8,36.5,199.7L36.5,199.7z"/>
	<path class="st8" d="M36.5,199.7c-0.9-0.2-21.9-11.7-22.4-12.7c-0.2-0.4,1.3-3.5,3.2-7.3c0.4-0.8,2.2-4.6,2.8-5.5
		c4.1,2.2,10.4,5.4,14.1,7.3l-1.9,3.2l-1.4,2.4c0,0,6.1,8,6.5,9.1C37.9,197.4,37.4,199.8,36.5,199.7L36.5,199.7z"/>
	<path class="st4" d="M36.5,199.8c-0.9-0.2-22-11.8-22.6-12.7c-0.2-0.4,2-5,4.6-9.8l13.8,7.5l-1.4,2.4c0,0,6.1,8.1,6.6,9.2
		C37.9,197.4,37.4,199.9,36.5,199.8z"/>
	<path class="st4" d="M36.7,198.7c-3.5-2-17.8-9.9-21.4-11.7c0,0,0,0,0,0C18.7,189.2,33.1,197,36.7,198.7
		C36.8,198.8,36.8,198.8,36.7,198.7z"/>
	<path class="st4" d="M31.9,186.6c-1.3-1-3.1-1.8-4.7-1.3c-0.1,0,0,0.1,0,0.1c1.6,0.3,3.1,0.8,4.6,1.4c0,0,0.1,0,0.1,0
		C31.9,186.7,31.9,186.7,31.9,186.6L31.9,186.6z"/>
	<path class="st4" d="M32.5,187.8c-1.3-1-3.1-1.8-4.7-1.3c-0.1,0,0,0.1,0,0.1c1.6,0.3,3.1,0.8,4.6,1.4c0,0,0.1,0,0.1,0
		C32.6,187.9,32.6,187.8,32.5,187.8z"/>
	<path class="st4" d="M33.2,188.9c-1.3-1-3.1-1.8-4.7-1.3c-0.1,0,0,0.1,0,0.1c1.6,0.3,3.1,0.8,4.6,1.4c0,0,0.1,0,0.1,0
		C33.3,189,33.3,189,33.2,188.9L33.2,188.9z"/>
	<path class="st4" d="M33.9,190.1c-1.3-1-3.1-1.8-4.7-1.3c-0.1,0,0,0.1,0,0.1c1.6,0.3,3.1,0.8,4.6,1.4c0,0,0.1,0,0.1,0
		C33.9,190.2,33.9,190.1,33.9,190.1L33.9,190.1z"/>
	<path class="st4" d="M36.2,184.8c-0.1-1.1-1.3-1.3-2.2-1.1c-1.5,0.3-2.8,1-3.9,2c0,0,0,0.1,0,0.1c-0.1,0.1,0,0.2,0.1,0.3
		c0,0,0,0,0.1,0c1.4,0.2,2.8,0.6,4.3,0.4C35.3,186.3,36.3,185.8,36.2,184.8z M32.4,186L32.4,186c-0.7-0.1-1.4-0.2-2-0.3
		c0.7-0.4,1.5-0.8,2.3-1.1c0.4-0.2,0.8-0.3,1.2-0.4c0.6-0.1,2.7-0.1,1.6,1.3C34.9,186.3,33.2,186.1,32.4,186z"/>
	<path class="st4" d="M26.8,183.4c0.9,1.1,2.2,1.8,3.4,2.6c0.1,0.1,0.2,0,0.3-0.1c0,0,0,0,0-0.1c0,0,0.1,0,0.1,0
		c-0.1-1.5-0.6-2.9-1.5-4.1c-0.5-0.7-1.6-1.4-2.3-0.7C25.9,181.7,26.3,182.8,26.8,183.4z M26.7,182.1L26.7,182.1
		c0.2-1.8,1.7-0.4,2.1,0.1c0.2,0.3,0.4,0.7,0.6,1.1c0.3,0.8,0.7,1.6,0.9,2.4c-0.5-0.4-1.1-0.8-1.7-1.2C27.9,184,26.6,183,26.7,182.1
		L26.7,182.1z"/>
	<path class="st3" d="M62.8,111.6c0,0-1.1,6.3-5.1,9.6c0,0-6,25.1-7.3,29.8c-2,7-14.1,28.9-14.1,28.9L21,172.1
		c0,0,12.4-23.6,13.8-25.5c0.9-1.2,4.6-21.8,4.5-22.4c-1.4-7.7,2.1-12.6,2.1-12.6L62.8,111.6z"/>
	<path class="st4" d="M48.7,113c-0.3,1.2-1,2.3-2,3.1c-1.1,0.8-2.4,1.4-3.8,1.5c-0.2,0-0.2,0.4,0,0.4c2.8-0.1,5.6-2,5.8-5
		C48.8,112.9,48.7,112.9,48.7,113z"/>
	<path class="st4" d="M60.3,119.2c-1,0.5-1.9,1-2.8,1.7c-0.9,0.6-1.8,1.4-2.7,2.1c0,0,0,0.1,0,0.1c1-0.6,2-1.1,2.9-1.8
		C58.6,120.6,59.5,120,60.3,119.2C60.3,119.2,60.3,119.2,60.3,119.2z"/>
	<path class="st4" d="M60.4,113.3c-0.1,0.7-0.3,1.3-0.4,2c-0.1,0.7-0.2,1.2-0.4,1.8c-0.1,0.6-0.4,1.1-0.8,1.5
		c-0.2,0.2-0.5,0.4-0.8,0.6c-0.1,0.1-0.3,0.2-0.4,0.3c0-0.1,0-0.2,0.1-0.3c0-0.2,0.1-0.5,0.1-0.7c0.1-0.5,0.2-1.1,0.3-1.6
		c0.2-1.1,0.3-2.2,0.5-3.2c0,0-0.1-0.1-0.1,0c-0.3,1.1-0.6,2.1-0.8,3.2c-0.1,0.5-0.5,3.1-0.5,3.3c0,0.2,0,0.4,0,0.6
		c0,0.2,0,0.4,0,0.6c0,0,0,0,0.1,0c0,0,0,0,0,0c0.1-0.2,0.1-0.4,0.2-0.6c0-0.2,0.1-0.4,0.1-0.6c0-0.1,0-0.1,0-0.2
		c0.3-0.2,0.5-0.4,0.7-0.5c0.2-0.2,0.5-0.4,0.8-0.6c0.4-0.4,0.8-0.9,0.9-1.5c0.2-0.6,0.3-1.2,0.3-1.9
		C60.3,114.8,60.3,114.1,60.4,113.3C60.5,113.3,60.4,113.3,60.4,113.3L60.4,113.3z"/>
	<path class="st4" d="M36.9,176.5c-0.4-0.3-0.8-0.5-1.2-0.7c-0.4-0.2-0.9-0.5-1.4-0.8c-0.9-0.5-1.7-1-2.6-1.5
		c-1.8-1-3.6-1.9-5.4-2.7l-1.5-0.7c-0.5-0.3-1.1-0.5-1.6-0.8c0,0-0.1,0,0,0c0.9,0.5,1.8,1,2.7,1.5c0.9,0.5,1.7,1,2.6,1.4
		c1.8,1,3.6,1.9,5.4,2.7c0.5,0.2,1,0.5,1.5,0.7c0.3,0.1,0.5,0.2,0.8,0.4C36.4,176.4,36.6,176.5,36.9,176.5
		C36.9,176.6,36.9,176.6,36.9,176.5C37,176.5,37,176.5,36.9,176.5L36.9,176.5z"/>
	<path class="st4" d="M44.4,110.4c-2.2,2.8-3.5,6.2-3.5,9.7c0,0.9,0.1,1.9,0.2,2.8c0.2,1,0.3,2,0.3,3.1c-0.1,1.1-0.2,2.1-0.4,3.2
		c-0.2,1.1-0.4,2.1-0.6,3.2c-0.4,2.1-0.9,4.2-1.3,6.2c-0.5,2.1-0.9,4.1-1.5,6.1c-0.5,2-1.3,3.8-2.4,5.5c-1.1,1.8-2.1,3.5-3,5.3
		c-1,1.9-1.9,3.8-2.9,5.8c-0.5,1-0.9,1.9-1.4,2.9c-0.5,1-1,1.9-1.4,2.9c-0.2,0.5-0.4,1-0.7,1.5c0,0,0.1,0.1,0.1,0
		c0.5-1,1-1.9,1.5-2.9c0.5-1,1-1.9,1.5-2.8c1-1.9,2-3.8,2.9-5.7c1-1.9,1.9-3.7,3-5.5c1-1.7,2-3.4,2.7-5.2c0.6-1.9,1.1-4,1.6-5.9
		c0.5-2.1,1-4.1,1.4-6.2c0.4-2.1,0.9-4.2,1.2-6.3c0.2-1,0.2-2,0.2-3c-0.1-1-0.3-2-0.4-3.1c-0.3-3.6,0.5-7.2,2.5-10.3
		C43.9,111.2,44.2,110.8,44.4,110.4C44.5,110.4,44.4,110.4,44.4,110.4L44.4,110.4z"/>
	<path class="st4" d="M55.4,68c5.4,0,9.8,4.6,9.8,10.2c0,5.6-4.4,10.2-9.8,10.2c-5.4,0-9.8-4.6-9.8-10.2C45.5,72.6,49.9,68,55.4,68z
		"/>
	<path class="st4" d="M50.7,85.5c0,0.7-0.6,1.4-1.4,1.4S48,86.3,48,85.5c0-0.7,0.6-1.4,1.4-1.4c0,0,0,0,0,0
		C50.1,84.2,50.7,84.8,50.7,85.5C50.7,85.5,50.7,85.5,50.7,85.5z"/>
	<path class="st4" d="M65,83.5c0,0.7-0.6,1.4-1.3,1.4c-0.7,0-1.4-0.6-1.4-1.3s0.6-1.4,1.3-1.4c0,0,0,0,0,0
		C64.4,82.2,65,82.8,65,83.5z"/>
	<path class="st4" d="M66.4,77.2c0,0.7-0.6,1.4-1.4,1.4s-1.4-0.6-1.4-1.4c0-0.7,0.6-1.4,1.4-1.4C65.8,75.8,66.4,76.4,66.4,77.2
		C66.4,77.2,66.4,77.2,66.4,77.2z"/>
	<path class="st4" d="M47.6,76c0,0.7-0.6,1.4-1.3,1.4c-0.7,0-1.4-0.6-1.4-1.3c0-0.7,0.6-1.4,1.3-1.4c0,0,0,0,0,0
		C47,74.6,47.6,75.2,47.6,76z"/>
	<path class="st4" d="M49.3,72.3c0,0.7-0.6,1.4-1.4,1.4s-1.4-0.6-1.4-1.4c0-0.7,0.6-1.4,1.4-1.4S49.3,71.6,49.3,72.3z"/>
	<path class="st4" d="M51,70.8c0,0.7-0.6,1.4-1.3,1.4c-0.7,0-1.4-0.6-1.4-1.3c0-0.7,0.6-1.4,1.3-1.4c0,0,0,0,0,0
		C50.3,69.4,51,70,51,70.8z"/>
	<path class="st4" d="M52.6,69.1c0,0.7-0.6,1.4-1.4,1.4s-1.4-0.6-1.4-1.4s0.6-1.4,1.4-1.4S52.6,68.4,52.6,69.1z"/>
	<path class="st4" d="M54.7,68.9c0,0.7-0.6,1.4-1.3,1.4c-0.7,0-1.4-0.6-1.4-1.3c0-0.7,0.6-1.4,1.3-1.4c0,0,0,0,0,0
		C54.1,67.5,54.7,68.1,54.7,68.9z"/>
	<path class="st4" d="M61,68.9c0,0.7-0.6,1.4-1.3,1.4c-0.7,0-1.4-0.6-1.4-1.3c0-0.7,0.6-1.4,1.3-1.4c0,0,0,0,0,0
		C60.4,67.5,61,68.1,61,68.9z"/>
	<path class="st4" d="M62.6,70.2c0.7,0,1.4,0.6,1.4,1.4s-0.6,1.4-1.4,1.4c-0.7,0-1.4-0.6-1.4-1.4C61.3,70.8,61.9,70.2,62.6,70.2z"/>
	<path class="st4" d="M48.3,81.9c0,0.7-0.6,1.4-1.4,1.4c-0.7,0-1.4-0.6-1.4-1.4c0-0.7,0.6-1.4,1.4-1.4
		C47.6,80.6,48.3,81.2,48.3,81.9z"/>
	<path class="st4" d="M54.2,87.3c0,0.7-0.6,1.4-1.3,1.4c-0.7,0-1.4-0.6-1.4-1.3c0-0.7,0.6-1.4,1.3-1.4c0,0,0,0,0,0
		C53.6,86,54.2,86.6,54.2,87.3z"/>
	<path class="st4" d="M56.1,87.4c0,0.7-0.6,1.4-1.4,1.4c-0.7,0-1.4-0.6-1.4-1.4c0-0.7,0.6-1.4,1.4-1.4C55.5,86,56.1,86.6,56.1,87.4z
		"/>
	<path class="st4" d="M47.6,79.9c0,0.7-0.6,1.4-1.4,1.4c-0.7,0-1.4-0.6-1.4-1.4c0-0.7,0.6-1.4,1.4-1.4C47,78.6,47.6,79.2,47.6,79.9z
		"/>
	<path class="st4" d="M49.1,83.9c0,0.7-0.5,1.2-1.2,1.2c-0.7,0-1.2-0.5-1.2-1.2c0-0.7,0.5-1.2,1.2-1.2
		C48.5,82.7,49.1,83.2,49.1,83.9z"/>
	<path class="st4" d="M56.7,68.2c0,0.7-0.5,1.2-1.2,1.2c-0.7,0-1.2-0.5-1.2-1.2c0-0.7,0.5-1.2,1.2-1.2C56.2,67,56.7,67.5,56.7,68.2z
		"/>
	<path class="st4" d="M47.4,78c0,0.7-0.5,1.2-1.2,1.2c-0.7,0-1.2-0.5-1.2-1.2c0-0.7,0.5-1.2,1.2-1.2C46.9,76.7,47.4,77.3,47.4,78z"
		/>
	<path class="st4" d="M48.1,74.1c0,0.7-0.5,1.2-1.2,1.2c-0.7,0-1.2-0.5-1.2-1.2c0-0.7,0.5-1.2,1.2-1.2
		C47.6,72.9,48.1,73.4,48.1,74.1z"/>
	<path class="st4" d="M58.7,68.4c0,0.7-0.5,1.2-1.2,1.2c-0.7,0-1.2-0.5-1.2-1.2c0-0.7,0.5-1.2,1.2-1.2c0,0,0,0,0,0
		C58.2,67.1,58.7,67.7,58.7,68.4z"/>
	<path class="st4" d="M52.3,86.6c0,0.7-0.5,1.2-1.2,1.2s-1.2-0.5-1.2-1.2c0-0.7,0.5-1.2,1.2-1.2C51.8,85.4,52.3,85.9,52.3,86.6z"/>
	<path class="st4" d="M57.9,87.8c0,0.7-0.5,1.2-1.2,1.2c-0.7,0-1.2-0.5-1.2-1.2c0-0.7,0.5-1.2,1.2-1.2
		C57.4,86.6,57.9,87.1,57.9,87.8z"/>
	<path class="st4" d="M60.1,87.4c0,0.7-0.5,1.2-1.2,1.2c-0.7,0-1.2-0.5-1.2-1.2s0.5-1.2,1.2-1.2C59.6,86.1,60.1,86.7,60.1,87.4z"/>
	<path class="st4" d="M61.9,86.1c0,0.7-0.5,1.2-1.2,1.2c-0.7,0-1.2-0.5-1.2-1.2c0-0.7,0.5-1.2,1.2-1.2
		C61.3,84.9,61.9,85.5,61.9,86.1z"/>
	<path class="st4" d="M63.9,85.3c0,0.7-0.5,1.2-1.2,1.2c-0.7,0-1.2-0.5-1.2-1.2c0-0.7,0.5-1.2,1.2-1.2
		C63.3,84.1,63.9,84.6,63.9,85.3z"/>
	<path class="st4" d="M66,81.8c0,0.7-0.5,1.2-1.2,1.2c-0.7,0-1.2-0.5-1.2-1.2c0-0.7,0.5-1.2,1.2-1.2C65.5,80.5,66,81.1,66,81.8
		C66,81.8,66,81.8,66,81.8z"/>
	<path class="st4" d="M66,79.5c0,0.7-0.5,1.2-1.2,1.2c-0.7,0-1.2-0.5-1.2-1.2c0-0.7,0.5-1.2,1.2-1.2C65.5,78.3,66,78.8,66,79.5z"/>
	<path class="st4" d="M61.4,68.5c0.7,0,1.2,0.5,1.2,1.2c0,0.7-0.5,1.2-1.2,1.2c-0.7,0-1.2-0.5-1.2-1.2
		C60.2,69.1,60.7,68.5,61.4,68.5z"/>
	<path class="st4" d="M64.3,71.9c0.7,0,1.2,0.5,1.2,1.2c0,0.7-0.5,1.2-1.2,1.2c-0.7,0-1.2-0.5-1.2-1.2C63,72.4,63.6,71.9,64.3,71.9z
		"/>
	<path class="st4" d="M65.7,75c0,0.7-0.5,1.2-1.2,1.2c-0.7,0-1.2-0.5-1.2-1.2c0-0.7,0.5-1.2,1.2-1.2C65.2,73.8,65.7,74.4,65.7,75z"
		/>
	<path class="st10" d="M56.8,91c1.1,2.5,9.3,10.7,16.1,13.4c2.5,1,13.5-1.4,16.1-2.4c3.1-1.2,1.2-8.8-0.7-8.8
		c-2.4-0.1-12.8,2.2-15,2.1c-2.7-0.1-8.8-4.4-14.1-6.6C56.6,87.5,56,89.1,56.8,91z"/>
	<path class="st10" d="M89.1,102c1-0.3,5.3-2.2,6.4-3.1c1.1-0.8,4.1-3.3,3.5-4.2c-0.5-0.9-1.5-0.2-1.5-0.2s1.1-1.3,0.5-2.1
		c-0.6-0.9-2,0.2-2,0.2s1-1.4,0.3-2.2c-0.7-0.8-1.9,0.5-1.9,0.5s1-1.2,0.2-1.7c-1-0.5-2.6,2-3.9,2.7c-0.3,0.2-6.1,3.2-6.1,3.2
		L89.1,102z"/>
	<path class="st4" d="M94.6,90.8c-1.2,1.8-2,2.4-3.9,3.3c0,0,0,0.1,0,0.1C92.6,93.5,93.7,92.9,94.6,90.8
		C94.7,90.8,94.6,90.7,94.6,90.8z"/>
	<path class="st4" d="M96.1,92.4c-1.4,1.8-2.3,2.4-4.2,3.5c0,0,0,0.1,0,0.1C93.9,95.1,95.1,94.5,96.1,92.4
		C96.2,92.4,96.2,92.4,96.1,92.4z"/>
	<path class="st4" d="M97.5,94.5c-1.5,1.6-2.4,2.4-4.4,3.2c0,0,0,0,0,0.1c0,0,0,0,0.1,0C94.9,97.4,96.5,96.2,97.5,94.5
		C97.6,94.5,97.6,94.4,97.5,94.5z"/>
	<path class="st10" d="M82.8,95.4c0,0,1.7-2.1,2.7-2.8c1-0.7,5.6-2.1,5.9-1.2c0.5,1.3-2,2.6-3.3,3.1c0,0,1.1,2.9-0.5,4.3
		C86.1,100.1,82.8,95.4,82.8,95.4z"/>
	<path class="st4" d="M91.5,91.8c-0.4,1.5-2.2,2-3.4,2.6c-0.1,0-0.1,0.1-0.1,0.2c0,0,0,0,0,0c0.4,1.3,0.5,3.1-0.3,4.2c0,0,0,0,0,0
		c0,0,0,0,0,0c1.1-1,1.1-2.9,0.6-4.2C89.6,94,91.4,93.4,91.5,91.8C91.5,91.8,91.5,91.8,91.5,91.8z"/>
	<path class="st4" d="M64.3,100.3l4.7-7.2c0,0-5.7-3.2-8.9-4.5c-3.2-1.3-5.8-0.3-2.7,4C60,96.3,64.3,100.3,64.3,100.3z"/>
	<path class="st11" d="M63.6,105.9l0.1,10.2c0,0-20.4-2.2-24.7-3.3c0,0,7.7-16.8,14.1-23.7c2.9-2.4,5.7-1.1,7.4,0.9
		c0.4,0.5,4.9,8.4,5,11.1C65.6,103.6,63.6,105.9,63.6,105.9z"/>
	<path class="st10" d="M55.6,88.7c0.1,0.4,2,2.8,3.7,2.7c0.6,0,0.5-3.2,0.5-3.2l0.1-0.2l0.7-3.2l-3.8-2.3l-0.6-0.3
		c0,0-0.1,0.9-0.3,2c0,0.1,0,0.1,0,0.2c0,0.1,0,0.1,0,0.2c0,0.2,0,0.3-0.1,0.5c0,0.2,0,0.3,0,0.4c0,0.1,0,0.3,0,0.4
		C55.6,86.7,55.5,87.7,55.6,88.7L55.6,88.7z"/>
	<path class="st4" d="M55.9,84.1c0.7,1.8,2.2,3.3,4,3.9l0.7-3.2l-3.8-2.4l-0.6-0.3C56.1,82.1,56,83,55.9,84.1z"/>
	<path class="st10" d="M64.9,79.5c0.6,5.8-2.8,6.8-4,6.9c-1.1,0.1-5,0.4-6.2-5.3c-1.2-5.7,1.3-7.8,3.9-8.2
		C61,72.6,64.2,73.7,64.9,79.5z"/>
	<path class="st4" d="M63.7,78.8c-0.1,0-0.3,0-0.4-0.1c-0.1,0-0.3-0.1-0.4-0.1c-0.1-0.1-0.1-0.2,0-0.3c0.1-0.1,0.3-0.2,0.5-0.1
		c0.2,0,0.4,0.1,0.5,0.3c0.1,0.1,0.1,0.2,0,0.3C63.8,78.8,63.8,78.8,63.7,78.8z"/>
	<path class="st4" d="M59.7,79c0.1,0,0.3-0.1,0.4-0.1c0.1,0,0.3-0.1,0.4-0.2c0.1-0.1,0.1-0.2,0-0.3c-0.1-0.1-0.3-0.2-0.5-0.1
		c-0.2,0-0.4,0.1-0.5,0.3c-0.1,0.1,0,0.2,0.1,0.3C59.6,79,59.6,79,59.7,79z"/>
	<path class="st4" d="M60.5,80.5C60.5,80.5,60.5,80.5,60.5,80.5c0,0.4,0,0.9-0.4,1c0,0,0,0,0,0C60.6,81.5,60.6,80.9,60.5,80.5z"/>
	<path class="st4" d="M60.1,80.1c-0.6,0-0.6,1.3,0,1.3C60.7,81.4,60.7,80.1,60.1,80.1z"/>
	<path class="st4" d="M59.9,80.2c-0.1,0.1-0.2,0.2-0.3,0.2c-0.1,0-0.3-0.1-0.4-0.2h0c0,0.2,0.1,0.5,0.4,0.5
		C59.7,80.7,59.9,80.5,59.9,80.2C60,80.2,59.9,80.1,59.9,80.2z"/>
	<path class="st4" d="M63,80.2C63,80.2,63,80.3,63,80.2c0,0.4,0.1,0.9,0.4,1c0,0,0,0,0,0C63,81.2,62.9,80.6,63,80.2z"/>
	<path class="st4" d="M63.3,79.8c0.6-0.1,0.7,1.2,0.1,1.3C62.9,81.1,62.8,79.9,63.3,79.8z"/>
	<path class="st4" d="M63.6,79.9c0.1,0.1,0.2,0.2,0.3,0.2c0.1,0,0.2-0.1,0.3-0.3c0,0,0,0,0,0c0,0.2-0.1,0.5-0.3,0.6
		C63.8,80.4,63.6,80.2,63.6,79.9C63.5,79.9,63.6,79.9,63.6,79.9z"/>
	<path class="st4" d="M60.8,83.5c0.1,0.1,0.2,0.2,0.3,0.2c0.1,0,0.3,0,0.4-0.1c0,0,0,0,0,0c-0.1,0.2-0.3,0.2-0.5,0.2
		C60.8,83.8,60.7,83.7,60.8,83.5C60.7,83.5,60.7,83.5,60.8,83.5z"/>
	<path class="st4" d="M62.4,82c0,0,0.1,0.6,0.1,0.9c0,0-0.1,0-0.2,0c-0.5,0.1-1-0.1-1.3-0.5c0,0,0-0.1,0,0c0.4,0.2,0.8,0.3,1.2,0.3
		c0-0.1-0.2-1-0.2-1c0.2,0,0.4,0.1,0.6,0.1c-0.2-1.2-0.5-2.4-0.7-3.7c0,0,0.1-0.1,0.1,0c0.4,1.3,0.7,2.6,0.9,3.9
		C63.1,82.3,62.5,82.1,62.4,82L62.4,82z"/>
	<path class="st4" d="M55.2,81.5c1,0.4,0.6-1.3,0.6-1.3s0.9-0.5,0.4-1.7c0,0,1.2,0.4,1.3-1.4c0.6-0.1,1-0.6,1-1.2c0,0,0-0.1,0-0.1
		c0,0,1.4,0.8,2-0.5c0,0,1,1.1,1.8,0c0.2,0.4,0.7,0.7,1.2,0.5c0.1,0.5,0.3,0.9,0.7,1.1c0,0-1.7-5.9-7.1-3.9
		C52.3,75,54.1,81,55.2,81.5L55.2,81.5z"/>
	<path class="st10" d="M55.6,81.7c0,0-1.3-1.8-2.1-1.3c-0.8,0.5,0.2,3.1,1.2,3.4c0.5,0.2,1.1,0,1.3-0.5c0,0,0,0,0,0
		C56,83.2,55.6,81.7,55.6,81.7z"/>
	<path class="st4" d="M53.8,81.1C53.8,81.1,53.8,81.1,53.8,81.1c0.7,0.3,1.1,0.9,1.3,1.6c-0.2-0.3-0.5-0.3-0.8-0.2c0,0,0,0-0.1,0
		c0,0,0,0,0,0c0.2-0.1,0.5,0,0.7,0.2c0.1,0.2,0.2,0.3,0.3,0.5c0,0.1,0.1,0,0.1,0C55.4,82.4,54.7,81.2,53.8,81.1z"/>
	<path class="st4" d="M124.8,83.3l0.1,32.7c0,1.8-1.5,3.3-3.3,3.3l-51.8,0.1c-1.8,0-3.3-1.5-3.3-3.3c0,0,0,0,0,0l-0.1-32.7
		c0-1.7,1.4-3.1,3.1-3.1l52.3-0.1C123.4,80.2,124.8,81.6,124.8,83.3L124.8,83.3z"/>
	<path class="st3" d="M116.5,111.4c0,1.7-1.4,3-3,3.1c-1.7,0-3-1.4-3.1-3c0-1.7,1.4-3,3-3.1c0,0,0,0,0,0
		C115.1,108.3,116.5,109.7,116.5,111.4z"/>
	<path class="st6" d="M120.2,111.4c0,1.7-1.4,3-3,3c-1.7,0-3-1.4-3-3c0-1.7,1.4-3,3-3C118.9,108.3,120.2,109.7,120.2,111.4
		C120.2,111.4,120.2,111.4,120.2,111.4z"/>
	<path class="st6" d="M73,85.9l7.7,0c0.9,0,1.6,0.7,1.6,1.6l0,4.3c0,0.9-0.7,1.6-1.6,1.6l-7.7,0c-0.9,0-1.6-0.7-1.6-1.6l0-4.3
		C71.3,86.7,72.1,85.9,73,85.9z"/>
	<path class="st12" d="M71,100.4l-0.4,0.3c0,0,0,0-0.1,0c0,0-0.1,0-0.1-0.1c0,0,0-0.1,0-0.1c0,0,0,0,0,0l0.6-0.4c0.1,0,0.1,0,0.2,0
		c0,0,0,0.1,0,0.1v2.9c0,0.1,0,0.1-0.1,0.1c0,0,0,0,0,0c-0.1,0-0.1,0-0.1-0.1C71,103.2,71,100.4,71,100.4z"/>
	<path class="st12" d="M72,103.1l1.5-1.3c0.2-0.2,0.3-0.4,0.3-0.6c0-0.2-0.1-0.4-0.2-0.5c-0.3-0.3-0.8-0.4-1.2-0.1c0,0,0,0,0,0
		l-0.2,0.1c0,0-0.1,0-0.1,0c0,0,0,0,0,0c0,0,0-0.1,0-0.1c0,0,0,0,0,0l0.2-0.1c0.2-0.2,0.4-0.3,0.7-0.3c0.3,0,0.6,0.1,0.8,0.3
		c0.2,0.2,0.3,0.4,0.3,0.7c0,0.3-0.1,0.6-0.3,0.8l-1.3,1.2h1.5c0.1,0,0.1,0.1,0.1,0.1c0,0.1,0,0.1-0.1,0.1H72h0c0,0-0.1,0-0.1,0
		C71.9,103.2,71.9,103.1,72,103.1C72,103.1,72,103.1,72,103.1L72,103.1z"/>
	<path class="st12" d="M76.6,100.3l-0.8,0.8c0.6,0.1,1,0.7,0.8,1.3c0,0.2-0.1,0.4-0.3,0.5c-0.2,0.2-0.5,0.3-0.8,0.3
		c-0.3,0-0.6-0.1-0.8-0.3c0,0,0-0.1,0-0.2c0,0,0.1,0,0.2,0c0.2,0.2,0.4,0.2,0.6,0.2c0.5,0,0.9-0.4,0.9-0.8c0,0,0,0,0,0
		c0-0.2-0.1-0.4-0.3-0.6c-0.2-0.2-0.4-0.3-0.6-0.2c0,0-0.1,0-0.1,0c0,0,0-0.1,0-0.2c0,0,0,0,0,0l0.8-0.8H75c-0.1,0-0.1,0-0.1-0.1
		c0,0,0,0,0,0c0-0.1,0-0.1,0.1-0.1c0,0,0,0,0,0h1.5C76.6,100.1,76.6,100.1,76.6,100.3C76.6,100.2,76.6,100.2,76.6,100.3
		C76.6,100.2,76.6,100.2,76.6,100.3C76.6,100.3,76.6,100.3,76.6,100.3L76.6,100.3z"/>
	<path class="st12" d="M79.2,102.6h-1.7c0,0-0.1,0-0.1,0c0,0,0-0.1,0-0.1c0,0,0,0,0,0l1.8-2.3c0,0,0.1,0,0.1,0c0,0,0,0,0,0
		c0,0,0,0,0,0.1c0,0,0,0,0,0v2.2h0.2c0.1,0,0.1,0,0.1,0.1c0,0.1,0,0.1-0.1,0.1c0,0,0,0,0,0h-0.2v0.5c0,0.1-0.1,0.1-0.1,0.1
		c0,0-0.1,0-0.1-0.1L79.2,102.6z M79.2,102.4L79.2,102.4v-1.9l-1.5,1.9L79.2,102.4z"/>
	<path class="st12" d="M83.2,102.9c0,0,0-0.1,0-0.2c0,0,0,0,0,0c0,0,0.1,0,0.2,0c0.3,0.3,0.9,0.3,1.2,0c0,0,0,0,0,0
		c0.2-0.2,0.3-0.4,0.3-0.6c0-0.2-0.1-0.4-0.2-0.6c-0.2-0.2-0.4-0.2-0.6-0.2c-0.2,0-0.4,0.1-0.6,0.3c0,0-0.1,0-0.2,0c0,0,0,0,0,0
		c0,0,0,0,0,0c0,0,0,0,0,0c0,0,0,0,0,0l0.2-1.3c0,0,0-0.1,0-0.1c0,0,0,0,0.1,0H85c0.1,0,0.1,0.1,0.1,0.1s-0.1,0.1-0.1,0.1h-1.4
		l-0.1,0.9c0.2-0.1,0.3-0.1,0.5-0.1c0.6,0,1.1,0.5,1.1,1.1c0,0.3-0.1,0.6-0.3,0.8c-0.2,0.2-0.5,0.3-0.8,0.3
		C83.7,103.3,83.4,103.2,83.2,102.9L83.2,102.9z"/>
	<path class="st12" d="M86.3,100.8c0.2-0.4,0.6-0.7,1.1-0.7c0.1,0,0.1,0,0.1,0.1c0,0.1,0,0.1-0.1,0.1c-0.4,0-0.7,0.2-0.9,0.6
		c-0.1,0.2-0.2,0.4-0.2,0.6c0.4-0.4,1-0.5,1.5-0.1c0.4,0.4,0.5,1,0.1,1.5c-0.4,0.4-1,0.5-1.5,0.1c-0.2-0.2-0.3-0.5-0.4-0.8
		c0-0.1,0-0.1,0-0.2C85.9,101.6,86.1,101.2,86.3,100.8L86.3,100.8z M86.2,102.2L86.2,102.2C86.2,102.2,86.2,102.3,86.2,102.2
		C86.2,102.3,86.2,102.3,86.2,102.2c0,0.6,0.4,0.9,0.9,0.9c0.5,0,0.8-0.4,0.8-0.9c0-0.5-0.4-0.8-0.9-0.8
		C86.5,101.4,86.2,101.8,86.2,102.2C86.2,102.2,86.2,102.2,86.2,102.2z"/>
	<path class="st12" d="M89.2,103.1l1.2-2.8h-1.5c-0.1,0-0.1,0-0.1-0.1c0-0.1,0-0.1,0.1-0.1h1.7c0,0,0,0,0.1,0c0,0,0,0,0.1,0.1
		c0,0,0,0,0,0c0,0,0,0,0,0.1l-1.2,2.9c0,0-0.1,0.1-0.1,0.1c0,0,0,0,0,0C89.2,103.2,89.2,103.1,89.2,103.1L89.2,103.1z"/>
	<path class="st12" d="M92.4,100.1c0.4,0,0.6,0.3,0.6,0.7c0,0.2-0.1,0.4-0.2,0.5c0.4,0.2,0.6,0.5,0.6,1c0,0.6-0.5,1-1.1,1
		c-0.5,0-0.9-0.4-1-1c0-0.4,0.2-0.8,0.6-1c-0.2-0.1-0.3-0.3-0.3-0.5C91.7,100.3,92,100.1,92.4,100.1z M92.4,103L92.4,103
		c0.4,0,0.8-0.4,0.8-0.8c0,0,0,0,0,0c0-0.4-0.4-0.8-0.8-0.8c-0.4,0-0.8,0.4-0.8,0.8C91.5,102.7,91.9,103,92.4,103
		C92.4,103,92.4,103,92.4,103z M92.4,101.2L92.4,101.2c0.2,0,0.4-0.2,0.4-0.4c0-0.2-0.2-0.4-0.4-0.4s-0.4,0.2-0.4,0.4
		C91.9,101,92.1,101.2,92.4,101.2C92.4,101.2,92.4,101.2,92.4,101.2L92.4,101.2z"/>
	<path class="st12" d="M98,100c0.5,0,1,0.4,1,0.9c0,0,0,0,0,0c0,0.1,0,0.2,0,0.3c0,0.4-0.1,0.9-0.3,1.3c-0.2,0.4-0.6,0.7-1.1,0.7
		c-0.1,0-0.1,0-0.1-0.1l0,0c0-0.1,0-0.1,0.1-0.1l0,0c0.4,0,0.7-0.2,0.9-0.6c0.1-0.2,0.2-0.4,0.2-0.6c-0.4,0.4-1,0.5-1.5,0.1
		c-0.4-0.4-0.5-1-0.1-1.5C97.4,100.2,97.7,100,98,100C98,100,98,100,98,100z M98.8,101.1L98.8,101.1c0-0.5-0.4-0.8-0.8-0.8
		c-0.5,0-0.8,0.4-0.8,0.8c0,0.5,0.4,0.8,0.8,0.8C98.5,101.9,98.8,101.5,98.8,101.1C98.8,101.1,98.8,101.1,98.8,101.1L98.8,101.1z"/>
	<path class="st12" d="M99.9,101.6c0-0.4,0.1-0.8,0.3-1.1c0.2-0.3,0.5-0.5,0.8-0.5c0.3,0,0.6,0.2,0.8,0.5c0.2,0.3,0.3,0.7,0.3,1.1
		c0,0.4-0.1,0.8-0.3,1.1c-0.2,0.3-0.5,0.5-0.8,0.5c-0.3,0-0.6-0.2-0.8-0.5C100,102.4,99.9,102,99.9,101.6z M100.1,101.6L100.1,101.6
		c0,0.3,0.1,0.7,0.3,1c0.1,0.2,0.4,0.4,0.6,0.4c0.3,0,0.5-0.2,0.6-0.4c0.4-0.6,0.4-1.4,0-2c-0.2-0.3-0.6-0.5-0.9-0.3
		c-0.1,0.1-0.2,0.2-0.3,0.3C100.2,100.9,100.1,101.3,100.1,101.6L100.1,101.6z"/>
	<path class="st12" d="M103.5,100.3l-0.4,0.3c0,0,0,0-0.1,0c0,0-0.1,0-0.1-0.1c0,0,0-0.1,0-0.1c0,0,0,0,0,0l0.6-0.4
		c0.1,0,0.1,0,0.1,0c0,0,0,0.1,0,0.1v2.9c0,0.1,0,0.1-0.1,0.1c-0.1,0-0.1,0-0.1-0.1L103.5,100.3L103.5,100.3z"/>
	<path class="st12" d="M104.5,103l1.5-1.3c0.3-0.3,0.4-0.8,0-1.2c-0.2-0.2-0.4-0.3-0.6-0.3c-0.2,0-0.4,0.1-0.6,0.2l-0.2,0.1
		c0,0-0.1,0-0.1,0c0,0,0,0,0,0c0,0,0-0.1,0-0.2c0,0,0,0,0,0l0.2-0.1c0.2-0.2,0.4-0.3,0.7-0.3c0.6,0,1,0.5,1,1c0,0.3-0.1,0.6-0.3,0.8
		l-1.3,1.2h1.5c0.1,0,0.1,0.1,0.1,0.1c0,0.1,0,0.1-0.1,0.1h-1.8c0,0-0.1,0-0.1,0C104.5,103.2,104.5,103.1,104.5,103
		C104.5,103,104.5,103,104.5,103z"/>
	<path class="st12" d="M111.9,100.2l-0.8,0.8c0.2,0,0.4,0.1,0.5,0.3c0.4,0.4,0.5,1.1,0.1,1.5c-0.4,0.4-1.1,0.5-1.5,0.1
		c0,0,0,0-0.1-0.1c0,0,0-0.1,0-0.2c0,0,0,0,0,0c0,0,0.1,0,0.2,0c0.2,0.2,0.4,0.2,0.6,0.2c0.2,0,0.4-0.1,0.6-0.3
		c0.2-0.2,0.3-0.4,0.3-0.6c0-0.2-0.1-0.4-0.3-0.6c-0.2-0.2-0.4-0.3-0.6-0.3c0,0-0.1,0-0.1,0c0,0,0-0.1,0-0.2c0,0,0,0,0,0l0.8-0.8
		h-1.2c-0.1,0-0.1-0.1-0.1-0.1c0-0.1,0-0.1,0.1-0.1c0,0,0,0,0,0h1.5C111.9,100,111.9,100.1,111.9,100.2
		C111.9,100.1,111.9,100.2,111.9,100.2C111.9,100.2,111.9,100.2,111.9,100.2z"/>
	<path class="st12" d="M114.5,102.5h-1.7c0,0-0.1,0-0.1,0c0,0,0-0.1,0-0.1c0,0,0,0,0,0l1.8-2.3c0,0,0.1,0,0.2,0c0,0,0,0,0,0
		c0,0,0,0,0,0.1c0,0,0,0,0,0v2.2h0.2c0.1,0,0.1,0,0.1,0.1c0,0.1,0,0.1-0.1,0.1c0,0,0,0,0,0h-0.2v0.5c0,0.1,0,0.1-0.1,0.1
		c0,0,0,0,0,0c-0.1,0-0.1,0-0.1-0.1C114.5,103.1,114.5,102.5,114.5,102.5z M114.5,102.3L114.5,102.3v-1.9l-1.5,1.9
		C113,102.3,114.5,102.3,114.5,102.3z"/>
	<path class="st12" d="M115.8,102.9c0,0,0-0.1,0-0.2c0,0,0,0,0,0c0,0,0.1,0,0.2,0c0,0,0,0,0,0c0.2,0.2,0.4,0.2,0.6,0.2
		c0.5,0,0.8-0.4,0.8-0.9c0-0.4-0.4-0.8-0.8-0.8c-0.2,0-0.4,0.1-0.6,0.3c0,0-0.1,0-0.2,0c0,0,0,0,0,0c0,0,0,0,0,0c0,0,0,0,0,0
		c0,0,0,0,0,0l0.2-1.3c0,0,0-0.1,0-0.1c0,0,0,0,0.1,0h1.5c0.1,0,0.1,0.1,0.1,0.1c0,0.1,0,0.1-0.1,0.1c0,0,0,0,0,0h-1.4l-0.1,0.9
		c0.2-0.1,0.4-0.1,0.5-0.1c0.3,0,0.6,0.1,0.8,0.3c0.4,0.4,0.4,1.1,0,1.5c-0.2,0.2-0.5,0.3-0.8,0.3
		C116.3,103.2,116,103.1,115.8,102.9L115.8,102.9z"/>
	<path class="st12" d="M118.8,100.7c0.2-0.4,0.6-0.7,1.1-0.7c0.1,0,0.1,0,0.1,0.1c0,0.1,0,0.1-0.1,0.1c-0.4,0-0.7,0.2-0.9,0.6
		c-0.1,0.2-0.2,0.4-0.2,0.6c0.4-0.4,1-0.5,1.5-0.1c0.4,0.4,0.5,1,0.1,1.5c-0.4,0.4-1,0.5-1.5,0.1c-0.2-0.2-0.3-0.5-0.4-0.7
		c0-0.1,0-0.1,0-0.2C118.5,101.5,118.6,101.1,118.8,100.7L118.8,100.7z M118.8,102.1L118.8,102.1
		C118.8,102.2,118.8,102.2,118.8,102.1C118.8,102.2,118.8,102.2,118.8,102.1c0,0.6,0.4,0.9,0.9,0.9c0.5,0,0.8-0.4,0.8-0.9
		c0-0.5-0.4-0.8-0.9-0.8C119.1,101.3,118.8,101.7,118.8,102.1C118.8,102.1,118.8,102.1,118.8,102.1z"/>
	<polygon class="st2" points="71.4,108.7 99.1,108.7 99.1,110 71.4,110.1 	"/>
	<polygon class="st2" points="71.2,112 90.8,112 90.8,113.4 71.2,113.4 	"/>
	<polygon class="st2" points="95.3,85.9 109.1,85.8 109.1,87.2 95.3,87.3 	"/>
	<g id="_1833099799408">
		<path class="st8" d="M119.2,91.7l-0.3-0.3c-0.1-0.1-0.1-0.1-0.1-0.1c1.4-1.4,1.4-3.6,0-5c0,0,0,0,0,0l0.1-0.1l0.3-0.3v0
			c0.1,0.1,0.2,0.2,0.3,0.3c0.2,0.2,0.4,0.5,0.5,0.8c0.2,0.3,0.3,0.7,0.3,1c0,0.2,0,0.3,0.1,0.5c0,0.1,0,0.4,0,0.4
			c0,0.1,0,0.2,0,0.3c0,0.3-0.1,0.6-0.2,0.9c-0.1,0.2-0.2,0.4-0.3,0.6c-0.1,0.2-0.3,0.4-0.4,0.6C119.4,91.5,119.3,91.6,119.2,91.7
			L119.2,91.7L119.2,91.7z"/>
		<path class="st8" d="M118,87.1l0.4-0.4c1.2,1.2,1.2,3,0,4.2c0,0,0,0,0,0l-0.4-0.4C119,89.5,119,88,118,87.1
			C118,87.1,118,87.1,118,87.1z"/>
		<path class="st8" d="M117.6,90l-0.4-0.4c0.2-0.2,0.4-0.5,0.4-0.9c0-0.3-0.1-0.6-0.4-0.9l0.4-0.4C118.3,88.2,118.3,89.3,117.6,90z"
			/>
	</g>
	<path class="st10" d="M52.2,93.6c-0.4,5.9-0.4,17.9,2.3,21.3c3.6,4.5,13.2,6.9,16.1,7.6c1.2,0.3,3.8-7.8,3.1-9
		c-0.8-1.2-10.7-3.3-11.5-3.9c-0.8-0.6-3.8-11.5-5.2-16.3C55.3,87.3,52.6,88.7,52.2,93.6L52.2,93.6z"/>
	<path class="st10" d="M67.5,121.4c3.3,1.6,7.4,3.9,11.6,3.6c0.5,0,0.9-0.2,1.3-0.5c1.9-0.1,2.4-1,2.4-1c1.7-0.6,2.1-1.7,2.1-1.7
		s2.2-0.2,2.3-1.5c0.1-1.5-3-1-4.9-1.8c-4.3-1.8-10-5.5-11.2-6.1L67.5,121.4L67.5,121.4z"/>
	<path class="st4" d="M76.5,119.9c1.3,0.5,2.6,1,3.9,1.3c1.5,0.3,3,0.5,4.5,0.6c0,0,0,0,0,0c0,0,0,0,0,0
		C81.9,122,79,121.3,76.5,119.9C76.4,119.9,76.4,119.9,76.5,119.9z"/>
	<path class="st4" d="M75.1,122.3c1.3,0.4,3.5,1.1,7.7,1.1v0C80.1,123.8,77.5,123.5,75.1,122.3C75,122.4,75,122.3,75.1,122.3z"/>
	<path class="st4" d="M74.3,123.7c2.2,0.6,3.7,0.7,6.1,0.8v0C77.6,124.7,76.6,124.5,74.3,123.7C74.2,123.7,74.2,123.7,74.3,123.7z"
		/>
	<path class="st10" d="M77.3,116.1c-0.5-0.5-0.2-0.7,0.9-0.6c1.2,0.1,5.6,1.6,6-0.1c0.4-1.6-6-3.5-7.9-3.6c-1.9,0-5.1,0.6-5.1,0.6
		C72.3,113.1,75,114.8,77.3,116.1z"/>
	<path class="st4" d="M51.5,102.8l8.4-1.8c0,0-1.8-6.3-3.2-9.5c-1.4-3.1-3.9-4.3-4.8,0.9C51.3,96.9,51.5,102.8,51.5,102.8z"/>
	<g id="_1833099794704">
		<g>
			<path class="st6" d="M193.9,110.7l-1.2-1.3l-0.7-0.7c3.3-3.4,5-7.4,5-12.1c0-4.7-1.7-8.7-5-12.1c0.2-0.2,0.5-0.4,0.7-0.7l1.2-1.2
				c0,0,0,0,0,0h0c0,0,0,0.1,0.1,0.1c0.5,0.5,1,1,1.4,1.6c2,2.5,3.4,5.4,4,8.5c0.1,0.8,0.2,1.6,0.3,2.4c0,0.3,0,2.1,0,2.1
				c0,0.6-0.1,1.1-0.1,1.7c-0.2,1.5-0.5,3-1.1,4.5c-0.4,1-0.9,2.1-1.4,3c-0.6,1-1.3,2-2,2.9C194.7,109.8,194.3,110.3,193.9,110.7
				L193.9,110.7L193.9,110.7z"/>
			<path class="st6" d="M188,88.5c0.7-0.7,1.3-1.3,2-2c2.2,2.3,3.6,4.9,4,8.1c0.6,4.7-0.8,8.7-4,12.1l-2-2c2.2-2.2,3.4-4.9,3.4-8.1
				C191.3,93.5,190.2,90.8,188,88.5z"/>
			<path class="st6" d="M186,102.8l-2-2c2.3-2.3,2.3-6,0-8.3c0,0,0,0,0,0l2-2C189.3,93.7,189.5,99.3,186,102.8z"/>
		</g>
	</g>
	<path class="st13" d="M70.9,32.8c0,8-6.5,14.4-14.4,14.4c-8,0-14.4-6.5-14.4-14.4s6.5-14.4,14.4-14.4
		C64.4,18.4,70.9,24.9,70.9,32.8z"/>
	<path class="st8" d="M60.9,34.7h31.7c0,0-1.2-4.7-6.4-5.1c0,0-2.2-0.4-4.5,2.1c-2.2,2.5-5.2-3-12.5-3
		C61.9,28.7,60.9,34.7,60.9,34.7z"/>
	<path class="st14" d="M166.6,17.4h21.9c0,0-0.8-3.2-4.5-3.5c0,0-1.6-0.3-3.1,1.5c-1.6,1.7-3.6-2.1-8.6-2.1
		C167.3,13.2,166.6,17.4,166.6,17.4z"/>
	<g id="_1833099793392">
		<path class="st6" d="M82,145.6c-10.7,0-10.7,15.2,0,15.2C92.7,160.7,92.7,145.6,82,145.6L82,145.6z"/>
		<path class="st4" d="M88.5,154.6c-0.6,2.6-2.7,4.9-6.5,4.9c-8.9,0-8.8-12.6,0-12.6h0.2c-8.3,0.2-8.3,12.1,0.2,12.1
			C85.8,158.9,87.9,156.9,88.5,154.6z"/>
		<path class="st4" d="M84.7,149.5c0-0.2-0.1-0.4-0.3-0.4h-2.9h-1.6c-0.2,0-0.3,0.2-0.3,0.4c0,0.2,0.1,0.4,0.3,0.4h1.6
			c0.7,0,1.3,0.7,1.3,1.7h-2.9c-0.2,0-0.3,0.2-0.3,0.4c0,0.2,0.1,0.4,0.3,0.4h2.8c-0.2,0.5-0.6,0.8-1.1,0.8h-1.6
			c-0.1,0-0.3,0.1-0.3,0.3c0,0.2,0,0.3,0.1,0.5l3.3,3.3c0.1,0.1,0.1,0.1,0.2,0.1c0.1,0,0.2-0.1,0.3-0.2c0.1-0.2,0.1-0.4-0.1-0.6
			l-2.5-2.6h0.7c0.9,0,1.6-0.7,1.8-1.7h1.1c0.2,0,0.3-0.2,0.3-0.4c0-0.2-0.1-0.4-0.3-0.4h-1c0-0.6-0.2-1.2-0.5-1.7h1.5
			C84.6,149.9,84.7,149.7,84.7,149.5z"/>
	</g>
	<g id="_1833099790896">
		<path class="st6" d="M201.5,50.2c-11.7,0-11.7,16.7,0,16.7C213.2,66.9,213.2,50.2,201.5,50.2z"/>
		<path class="st4" d="M208.6,60.1c-0.6,2.9-3,5.3-7.1,5.3c-9.7,0-9.7-13.8,0-13.8h0.2c-9.2,0.2-9.1,13.3,0.2,13.3
			C205.6,64.9,207.9,62.7,208.6,60.1L208.6,60.1z"/>
		<path class="st4" d="M204.5,54.5c0-0.3-0.2-0.5-0.4-0.5h-3.2h-1.8c-0.2,0-0.4,0.2-0.4,0.5c0,0.3,0.2,0.5,0.4,0.5h1.8
			c0.8,0,1.4,0.8,1.4,1.8h-3.2c-0.2,0-0.4,0.2-0.4,0.5c0,0.3,0.2,0.5,0.4,0.5h3c-0.3,0.5-0.7,0.9-1.2,0.9h-1.8
			c-0.2,0-0.3,0.1-0.3,0.3c-0.1,0.2,0,0.4,0.1,0.5l3.6,3.6c0.1,0.1,0.1,0.1,0.2,0.1c0.1,0,0.2-0.1,0.3-0.2c0.1-0.2,0.1-0.5-0.1-0.6
			l-2.8-2.8h0.8c0.9,0,1.7-0.8,2-1.8h1.2c0.2,0,0.4-0.2,0.4-0.5c0-0.3-0.2-0.5-0.4-0.5H203c0-0.7-0.2-1.3-0.6-1.8h1.6
			C204.3,55,204.5,54.8,204.5,54.5L204.5,54.5z"/>
	</g>
</g>
</svg>
