<svg id="Layer_1" enable-background="new 0 0 512 512" height="512" viewBox="0 0 512 512" width="512" xmlns="http://www.w3.org/2000/svg"><g><path d="m359.367 223.867v-24.1c0-25.379-13.352-47.686-33.389-60.306 23.02-30.473.656-75.397-37.845-75.194-38.498-.205-60.866 44.728-37.844 75.194-20.038 12.62-33.389 34.927-33.389 60.306v24.1c0 8.284 6.716 15 15 15h112.467c8.284 0 15-6.716 15-15zm-71.234-129.6c9.447 0 17.133 7.686 17.133 17.133-.941 22.73-33.329 22.723-34.267 0 .001-9.447 7.687-17.133 17.134-17.133zm41.234 114.6h-82.467v-9.1c2.271-54.715 80.216-54.673 82.467 0z"/><path d="m103.367 174.6h64.267c19.902-.793 19.887-29.215 0-30h-64.267c-19.902.793-19.887 29.215 0 30z"/><path d="m103.367 110.333h64.267c19.902-.793 19.887-29.215 0-30h-64.267c-19.902.793-19.887 29.215 0 30z"/><path d="m103.367 238.867h64.267c19.902-.793 19.887-29.215 0-30h-64.267c-19.902.792-19.887 29.214 0 30z"/><path d="m472.9 64.267h-49.267v-49.267c0-8.284-6.716-15-15-15h-369.533c-8.284 0-15 6.716-15 15v417.733c0 8.284 6.716 15 15 15h49.267v49.267c0 8.284 6.716 15 15 15h369.533c8.284 0 15-6.716 15-15v-417.733c0-8.285-6.716-15-15-15zm-418.8 353.466v-387.733h339.533v259.2h-113.533c-8.284 0-15 6.716-15 15v113.533zm318.32-98.533-77.32 77.32v-77.32zm85.48 162.8h-339.533v-34.267h161.733c3.978 0 7.793-1.581 10.606-4.394l128.534-128.532c2.813-2.813 4.394-6.628 4.394-10.606v-209.934h34.266z"/><path d="m215.833 273.133h-112.466c-19.902.793-19.887 29.215 0 30h112.467c19.902-.792 19.886-29.214-.001-30z"/><path d="m215.833 337.4h-112.466c-19.902.793-19.887 29.215 0 30h112.467c19.902-.793 19.886-29.215-.001-30z"/></g></svg>